<svg width="341" height="136" viewBox="0 0 341 136" fill="none" xmlns="http://www.w3.org/2000/svg">
<path d="M6.80273 14.1455V9.22363H6.26562V14.1455H1.75391V14.6631H6.26562V19.5752H6.80273V14.6631H11.5V14.1455H6.80273ZM22.1152 14.7607V14.2334H15.1035V14.7607H22.1152ZM34.127 14.7607V14.2334H27.1152V14.7607H34.127ZM46.1387 14.7607V14.2334H39.127V14.7607H46.1387ZM58.1504 14.7607V14.2334H51.1387V14.7607H58.1504ZM70.1621 14.7607V14.2334H63.1504V14.7607H70.1621ZM82.1738 14.7607V14.2334H75.1621V14.7607H82.1738ZM94.1855 14.7607V14.2334H87.1738V14.7607H94.1855ZM106.197 14.7607V14.2334H99.1855V14.7607H106.197ZM118.209 14.7607V14.2334H111.197V14.7607H118.209ZM130.221 14.7607V14.2334H123.209V14.7607H130.221ZM142.232 14.7607V14.2334H135.221V14.7607H142.232ZM154.244 14.7607V14.2334H147.232V14.7607H154.244ZM166.256 14.7607V14.2334H159.244V14.7607H166.256ZM178.268 14.7607V14.2334H171.256V14.7607H178.268ZM190.279 14.7607V14.2334H183.268V14.7607H190.279ZM202.291 14.7607V14.2334H195.279V14.7607H202.291ZM214.303 14.7607V14.2334H207.291V14.7607H214.303ZM226.314 14.7607V14.2334H219.303V14.7607H226.314ZM238.326 14.7607V14.2334H231.314V14.7607H238.326ZM250.338 14.7607V14.2334H243.326V14.7607H250.338ZM262.35 14.7607V14.2334H255.338V14.7607H262.35ZM274.361 14.7607V14.2334H267.35V14.7607H274.361ZM286.373 14.7607V14.2334H279.361V14.7607H286.373ZM298.385 14.7607V14.2334H291.373V14.7607H298.385ZM310.396 14.7607V14.2334H303.385V14.7607H310.396ZM322.408 14.7607V14.2334H315.396V14.7607H322.408ZM331.119 14.1455V9.22363H330.582V14.1455H326.07V14.6631H330.582V19.5752H331.119V14.6631H335.816V14.1455H331.119Z" fill="black"/>
</svg>
