<svg width="327" height="627" viewBox="0 0 327 627" fill="none" xmlns="http://www.w3.org/2000/svg">
<path d="M14.7598 599.488H14.2324V606.5H14.7598V599.488ZM14.7598 587.477H14.2324V594.488H14.7598V587.477ZM14.7598 575.465H14.2324V582.477H14.7598V575.465ZM14.7598 563.453H14.2324L14.2324 570.465H14.7598L14.7598 563.453ZM14.7598 551.441H14.2324V558.453H14.7598V551.441ZM14.7598 539.43H14.2324V546.441H14.7598V539.43ZM14.7598 527.418H14.2324V534.43H14.7598V527.418ZM14.7598 515.406H14.2324V522.418H14.7598V515.406ZM14.7598 503.395H14.2324L14.2324 510.406H14.7598L14.7598 503.395ZM14.7598 479.371H14.2324V486.383H14.7598V479.371ZM14.7598 467.359H14.2324V474.371H14.7598V467.359ZM14.7598 455.348H14.2324V462.359H14.7598V455.348ZM14.7598 443.336H14.2324L14.2324 450.348H14.7598L14.7598 443.336ZM14.7598 431.324H14.2324V438.336H14.7598V431.324ZM14.7598 419.312H14.2324L14.2324 426.324H14.7598L14.7598 419.312ZM14.7598 407.301H14.2324V414.312H14.7598V407.301ZM14.7598 395.289H14.2324V402.301H14.7598V395.289ZM14.7598 383.277H14.2324V390.289H14.7598V383.277ZM14.7598 371.266H14.2324V378.277H14.7598V371.266ZM14.7598 359.254H14.2324L14.2324 366.266H14.7598L14.7598 359.254ZM14.7598 347.242H14.2324V354.254H14.7598V347.242ZM14.7598 335.23H14.2324V342.242H14.7598V335.23ZM14.7598 323.219H14.2324V330.23H14.7598V323.219ZM14.7598 311.207H14.2324V318.219H14.7598V311.207ZM14.7598 299.195H14.2324L14.2324 306.207H14.7598L14.7598 299.195ZM14.7598 287.184H14.2324V294.195H14.7598V287.184ZM14.7598 275.172H14.2324L14.2324 282.184H14.7598L14.7598 275.172ZM14.7598 263.16H14.2324V270.172H14.7598V263.16ZM14.7598 251.148H14.2324V258.16H14.7598V251.148ZM14.7598 239.137H14.2324V246.148H14.7598V239.137ZM14.7598 227.125H14.2324V234.137H14.7598V227.125ZM14.7598 215.113H14.2324L14.2324 222.125H14.7598L14.7598 215.113ZM14.7598 203.102H14.2324V210.113H14.7598V203.102ZM14.7598 191.09H14.2324V198.102H14.7598V191.09ZM14.7598 179.078H14.2324V186.09H14.7598V179.078ZM14.7598 167.066H14.2324V174.078H14.7598V167.066ZM14.7598 155.055H14.2324L14.2324 162.066H14.7598L14.7598 155.055ZM14.7598 143.043H14.2324V150.055H14.7598V143.043ZM14.7598 131.031H14.2324V138.043H14.7598V131.031ZM14.7598 119.02H14.2324V126.031H14.7598V119.02ZM14.7598 107.008H14.2324V114.02H14.7598V107.008ZM14.7598 94.9961H14.2324L14.2324 102.008H14.7598L14.7598 94.9961ZM14.7598 82.9844H14.2324V89.9961H14.7598V82.9844ZM14.7598 58.9609H14.2324V65.9727H14.7598V58.9609ZM14.7598 46.9492H14.2324V53.9609H14.7598V46.9492ZM14.7598 34.9375H14.2324V41.9492H14.7598V34.9375ZM14.7598 22.9258H14.2324V29.9375H14.7598V22.9258Z" fill="black"/>
<path d="M315.76 599.488H315.232V606.5H315.76V599.488ZM315.76 587.477H315.232V594.488H315.76V587.477ZM315.76 575.465H315.232V582.477H315.76V575.465ZM315.76 563.453H315.232V570.465H315.76V563.453ZM315.76 551.441H315.232V558.453H315.76V551.441ZM315.76 539.43H315.232V546.441H315.76V539.43ZM315.76 527.418H315.232V534.43H315.76V527.418ZM315.76 515.406H315.232V522.418H315.76V515.406ZM315.76 503.395H315.232V510.406H315.76V503.395ZM315.76 479.371H315.232V486.383H315.76V479.371ZM315.76 467.359H315.232V474.371H315.76V467.359ZM315.76 455.348H315.232V462.359H315.76V455.348ZM315.76 443.336H315.232V450.348H315.76V443.336ZM315.76 431.324H315.232V438.336H315.76V431.324ZM315.76 419.312H315.232V426.324H315.76V419.312ZM315.76 407.301H315.232V414.312H315.76V407.301ZM315.76 395.289H315.232V402.301H315.76V395.289ZM315.76 383.277H315.232V390.289H315.76V383.277ZM315.76 371.266H315.232V378.277H315.76V371.266ZM315.76 359.254H315.232V366.266H315.76V359.254ZM315.76 347.242H315.232V354.254H315.76V347.242ZM315.76 335.23H315.232V342.242H315.76V335.23ZM315.76 323.219H315.232V330.23H315.76V323.219ZM315.76 311.207H315.232V318.219H315.76V311.207ZM315.76 299.195H315.232V306.207H315.76V299.195ZM315.76 287.184H315.232V294.195H315.76V287.184ZM315.76 275.172H315.232V282.184H315.76V275.172ZM315.76 263.16H315.232V270.172H315.76V263.16ZM315.76 251.148H315.232V258.16H315.76V251.148ZM315.76 239.137H315.232V246.148H315.76V239.137ZM315.76 227.125H315.232V234.137H315.76V227.125ZM315.76 215.113H315.232V222.125H315.76V215.113ZM315.76 203.102H315.232V210.113H315.76V203.102ZM315.76 191.09H315.232V198.102H315.76V191.09ZM315.76 179.078H315.232V186.09H315.76V179.078ZM315.76 167.066H315.232V174.078H315.76V167.066ZM315.76 155.055H315.232V162.066H315.76V155.055ZM315.76 143.043H315.232V150.055H315.76V143.043ZM315.76 131.031H315.232V138.043H315.76V131.031ZM315.76 119.02H315.232V126.031H315.76V119.02ZM315.76 107.008H315.232V114.02H315.76V107.008ZM315.76 94.9961H315.232V102.008H315.76V94.9961ZM315.76 82.9844H315.232V89.9961H315.76V82.9844ZM315.76 58.9609H315.232V65.9727H315.76V58.9609ZM315.76 46.9492H315.232V53.9609H315.76V46.9492ZM315.76 34.9375H315.232V41.9492H315.76V34.9375ZM315.76 22.9258H315.232V29.9375H315.76V22.9258Z" fill="black"/>
<path d="M15.2109 14.1445V9.22266H14.6738V14.1445H10.1621V14.6621H14.6738V19.5742H15.2109V14.6621H19.9082V14.1445H15.2109ZM30.5234 14.7598V14.2324H23.5117V14.7598H30.5234ZM42.5352 14.7598V14.2324H35.5234V14.7598H42.5352ZM54.5469 14.7598V14.2324H47.5352V14.7598H54.5469ZM66.5586 14.7598V14.2324H59.5469V14.7598H66.5586ZM78.5703 14.7598V14.2324H71.5586V14.7598H78.5703ZM90.582 14.7598V14.2324H83.5703V14.7598H90.582ZM102.594 14.7598V14.2324H95.582V14.7598H102.594ZM114.605 14.7598V14.2324H107.594V14.7598H114.605ZM126.617 14.7598V14.2324H119.605V14.7598H126.617ZM138.629 14.7598V14.2324H131.617V14.7598H138.629ZM150.641 14.7598V14.2324H143.629V14.7598H150.641ZM162.652 14.7598V14.2324H155.641V14.7598H162.652ZM174.664 14.7598V14.2324H167.652V14.7598H174.664ZM186.676 14.7598V14.2324H179.664V14.7598H186.676ZM198.688 14.7598V14.2324H191.676V14.7598H198.688ZM210.699 14.7598V14.2324H203.688V14.7598H210.699ZM222.711 14.7598V14.2324H215.699V14.7598H222.711ZM234.723 14.7598V14.2324H227.711V14.7598H234.723ZM246.734 14.7598V14.2324H239.723V14.7598H246.734ZM258.746 14.7598V14.2324H251.734V14.7598H258.746ZM270.758 14.7598V14.2324H263.746V14.7598H270.758ZM282.77 14.7598V14.2324H275.758V14.7598H282.77ZM294.781 14.7598V14.2324H287.77V14.7598H294.781ZM306.793 14.7598V14.2324H299.781V14.7598H306.793ZM315.504 14.1445V9.22266H314.967V14.1445H310.455V14.6621H314.967V19.5742H315.504V14.6621H320.201V14.1445H315.504Z" fill="black"/>
<path d="M15.2109 74.1445V69.2227H14.6738V74.1445H10.1621V74.6621H14.6738V79.5742H15.2109V74.6621H19.9082V74.1445H15.2109ZM30.5234 74.7598V74.2324H23.5117V74.7598H30.5234ZM42.5352 74.7598V74.2324H35.5234V74.7598H42.5352ZM54.5469 74.7598V74.2324H47.5352V74.7598H54.5469ZM66.5586 74.7598V74.2324H59.5469V74.7598H66.5586ZM78.5703 74.7598V74.2324H71.5586V74.7598H78.5703ZM90.582 74.7598V74.2324H83.5703V74.7598H90.582ZM102.594 74.7598V74.2324H95.582V74.7598H102.594ZM114.605 74.7598V74.2324H107.594V74.7598H114.605ZM126.617 74.7598V74.2324H119.605V74.7598H126.617ZM138.629 74.7598V74.2324H131.617V74.7598H138.629ZM150.641 74.7598V74.2324H143.629V74.7598H150.641ZM162.652 74.7598V74.2324H155.641V74.7598H162.652ZM174.664 74.7598V74.2324H167.652V74.7598H174.664ZM186.676 74.7598V74.2324H179.664V74.7598H186.676ZM198.688 74.7598V74.2324H191.676V74.7598H198.688ZM210.699 74.7598V74.2324H203.688V74.7598H210.699ZM222.711 74.7598V74.2324H215.699V74.7598H222.711ZM234.723 74.7598V74.2324H227.711V74.7598H234.723ZM246.734 74.7598V74.2324H239.723V74.7598H246.734ZM258.746 74.7598V74.2324H251.734V74.7598H258.746ZM270.758 74.7598V74.2324H263.746V74.7598H270.758ZM282.77 74.7598V74.2324H275.758V74.7598H282.77ZM294.781 74.7598V74.2324H287.77V74.7598H294.781ZM306.793 74.7598V74.2324H299.781V74.7598H306.793ZM315.504 74.1445V69.2227H314.967V74.1445H310.455V74.6621H314.967V79.5742H315.504V74.6621H320.201V74.1445H315.504Z" fill="black"/>
<path d="M15.2109 493.145V488.223H14.6738V493.145H10.1621V493.662H14.6738V498.574H15.2109V493.662H19.9082V493.145H15.2109ZM30.5234 493.76V493.232H23.5117V493.76H30.5234ZM42.5352 493.76V493.232H35.5234V493.76H42.5352ZM54.5469 493.76V493.232H47.5352V493.76H54.5469ZM66.5586 493.76V493.232H59.5469V493.76H66.5586ZM78.5703 493.76V493.232H71.5586V493.76H78.5703ZM90.582 493.76V493.232H83.5703V493.76H90.582ZM102.594 493.76V493.232H95.582V493.76H102.594ZM114.605 493.76V493.232H107.594V493.76H114.605ZM126.617 493.76V493.232H119.605V493.76H126.617ZM138.629 493.76V493.232H131.617V493.76H138.629ZM150.641 493.76V493.232H143.629V493.76H150.641ZM162.652 493.76V493.232H155.641V493.76H162.652ZM174.664 493.76V493.232H167.652V493.76H174.664ZM186.676 493.76V493.232H179.664V493.76H186.676ZM198.688 493.76V493.232H191.676V493.76H198.688ZM210.699 493.76V493.232H203.688V493.76H210.699ZM222.711 493.76V493.232H215.699V493.76H222.711ZM234.723 493.76V493.232H227.711V493.76H234.723ZM246.734 493.76V493.232H239.723V493.76H246.734ZM258.746 493.76V493.232H251.734V493.76H258.746ZM270.758 493.76V493.232H263.746V493.76H270.758ZM282.77 493.76V493.232H275.758V493.76H282.77ZM294.781 493.76V493.232H287.77V493.76H294.781ZM306.793 493.76V493.232H299.781V493.76H306.793ZM315.504 493.145V488.223H314.967V493.145H310.455V493.662H314.967V498.574H315.504V493.662H320.201V493.145H315.504Z" fill="black"/>
<path d="M15.2109 615.145V610.223H14.6738V615.145H10.1621V615.662H14.6738V620.574H15.2109V615.662H19.9082V615.145H15.2109ZM30.5234 615.76V615.232H23.5117V615.76H30.5234ZM42.5352 615.76V615.232H35.5234V615.76H42.5352ZM54.5469 615.76V615.232H47.5352V615.76H54.5469ZM66.5586 615.76V615.232H59.5469V615.76H66.5586ZM78.5703 615.76V615.232H71.5586V615.76H78.5703ZM90.582 615.76V615.232H83.5703V615.76H90.582ZM102.594 615.76V615.232H95.582V615.76H102.594ZM114.605 615.76V615.232H107.594V615.76H114.605ZM126.617 615.76V615.232H119.605V615.76H126.617ZM138.629 615.76V615.232H131.617V615.76H138.629ZM150.641 615.76V615.232H143.629V615.76H150.641ZM162.652 615.76V615.232H155.641V615.76H162.652ZM174.664 615.76V615.232H167.652V615.76H174.664ZM186.676 615.76V615.232H179.664V615.76H186.676ZM198.688 615.76V615.232H191.676V615.76H198.688ZM210.699 615.76V615.232H203.688V615.76H210.699ZM222.711 615.76V615.232H215.699V615.76H222.711ZM234.723 615.76V615.232H227.711V615.76H234.723ZM246.734 615.76V615.232H239.723V615.76H246.734ZM258.746 615.76V615.232H251.734V615.76H258.746ZM270.758 615.76V615.232H263.746V615.76H270.758ZM282.77 615.76V615.232H275.758V615.76H282.77ZM294.781 615.76V615.232H287.77V615.76H294.781ZM306.793 615.76V615.232H299.781V615.76H306.793ZM315.504 615.145V610.223H314.967V615.145H310.455V615.662H314.967V620.574H315.504V615.662H320.201V615.145H315.504Z" fill="black"/>
</svg>
