<svg fill="none" height="699" viewBox="0 0 963 699" width="963" xmlns="http://www.w3.org/2000/svg"><g fill="#000"><path d="m14.2109 687.145v-4.922h-.5371v4.922h-4.51169v.517h4.51169v4.912h.5371v-4.912h4.6973v-.517zm15.3125.615v-.528h-7.0117v.528zm12.0118 0v-.528h-7.0118v.528zm12.0117 0v-.528h-7.0117v.528zm12.0117 0v-.528h-7.0117v.528zm12.0117 0v-.528h-7.0117v.528zm12.0117 0v-.528h-7.0117v.528zm12.012 0v-.528h-7.012v.528zm12.011 0v-.528h-7.011v.528zm12.012 0v-.528h-7.012v.528zm12.012 0v-.528h-7.012v.528zm12.012 0v-.528h-7.012v.528zm12.011 0v-.528h-7.011v.528zm12.012 0v-.528h-7.012v.528zm12.012 0v-.528h-7.012v.528zm12.012 0v-.528h-7.012v.528zm12.011 0v-.528h-7.011v.528zm12.012 0v-.528h-7.012v.528zm12.012 0v-.528h-7.012v.528zm12.011 0v-.528h-7.011v.528zm12.012 0v-.528h-7.012v.528zm12.012 0v-.528h-7.012v.528zm12.012 0v-.528h-7.012v.528zm12.011 0v-.528h-7.011v.528zm12.012 0v-.528h-7.012v.528zm12.012 0v-.528h-7.012v.528zm8.711-.615v-4.922h-.537v4.922h-4.512v.517h4.512v4.912h.537v-4.912h4.697v-.517zm15.312.615v-.528h-7.012v.528zm12.012 0v-.528h-7.012v.528zm12.012 0v-.528h-7.012v.528zm12.011 0v-.528h-7.011v.528zm12.012 0v-.528h-7.012v.528zm12.012 0v-.528h-7.012v.528zm12.011 0v-.528h-7.011v.528zm12.012 0v-.528h-7.012v.528zm12.012 0v-.528h-7.012v.528zm12.012 0v-.528h-7.012v.528zm12.011 0v-.528h-7.011v.528zm12.012 0v-.528h-7.012v.528zm12.012 0v-.528h-7.012v.528zm12.011 0v-.528h-7.011v.528zm12.012 0v-.528h-7.012v.528zm12.012 0v-.528h-7.012v.528zm12.012 0v-.528h-7.012v.528zm12.011 0v-.528h-7.011v.528zm12.012 0v-.528h-7.012v.528zm12.012 0v-.528h-7.012v.528zm12.011 0v-.528h-7.011v.528zm12.012 0v-.528h-7.012v.528zm12.012 0v-.528h-7.012v.528zm12.012 0v-.528h-7.012v.528zm12.011 0v-.528h-7.011v.528zm12.012 0v-.528h-7.012v.528zm8.711-.615v-4.922h-.537v4.922h-4.512v.517h4.512v4.912h.537v-4.912h4.697v-.517zm15.313.615v-.528h-7.012v.528zm12.011 0v-.528h-7.011v.528zm12.012 0v-.528h-7.012v.528zm12.012 0v-.528h-7.012v.528zm12.011 0v-.528h-7.011v.528zm12.012 0v-.528h-7.012v.528zm12.012 0v-.528h-7.012v.528zm12.012 0v-.528h-7.012v.528zm12.011 0v-.528h-7.011v.528zm12.012 0v-.528h-7.012v.528zm12.012 0v-.528h-7.012v.528zm12.011 0v-.528h-7.011v.528zm12.012 0v-.528h-7.012v.528zm12.012 0v-.528h-7.012v.528zm12.012 0v-.528h-7.012v.528zm12.011 0v-.528h-7.011v.528zm12.012 0v-.528h-7.012v.528zm12.012 0v-.528h-7.012v.528zm12.011 0v-.528h-7.011v.528zm12.012 0v-.528h-7.012v.528zm12.012 0v-.528h-7.012v.528zm12.012 0v-.528h-7.012v.528zm12.011 0v-.528h-7.011v.528zm12.012 0v-.528h-7.012v.528zm8.711-.615v-4.922h-.537v4.922h-4.512v.517h4.512v4.912h.537v-4.912h4.697v-.517z"/><path d="m15.2109 14.1445v-4.92184h-.5371v4.92184h-4.5117v.5176h4.5117v4.9121h.5371v-4.9121h4.6973v-.5176zm15.3125.6153v-.5274h-7.0117v.5274zm12.0118 0v-.5274h-7.0118v.5274zm12.0117 0v-.5274h-7.0117v.5274zm12.0117 0v-.5274h-7.0117v.5274zm12.0117 0v-.5274h-7.0117v.5274zm12.0117 0v-.5274h-7.0117v.5274zm12.012 0v-.5274h-7.012v.5274zm12.011 0v-.5274h-7.011v.5274zm12.012 0v-.5274h-7.012v.5274zm12.012 0v-.5274h-7.012v.5274zm12.012 0v-.5274h-7.012v.5274zm12.011 0v-.5274h-7.011v.5274zm12.012 0v-.5274h-7.012v.5274zm12.012 0v-.5274h-7.012v.5274zm12.012 0v-.5274h-7.012v.5274zm12.011 0v-.5274h-7.011v.5274zm12.012 0v-.5274h-7.012v.5274zm12.012 0v-.5274h-7.012v.5274zm12.011 0v-.5274h-7.011v.5274zm12.012 0v-.5274h-7.012v.5274zm12.012 0v-.5274h-7.012v.5274zm12.012 0v-.5274h-7.012v.5274zm12.011 0v-.5274h-7.011v.5274zm12.012 0v-.5274h-7.012v.5274zm12.012 0v-.5274h-7.012v.5274zm8.711-.6153v-4.92184h-.537v4.92184h-4.512v.5176h4.512v4.9121h.537v-4.9121h4.697v-.5176zm15.312.6153v-.5274h-7.012v.5274zm12.012 0v-.5274h-7.012v.5274zm12.012 0v-.5274h-7.012v.5274zm12.011 0v-.5274h-7.011v.5274zm12.012 0v-.5274h-7.012v.5274zm12.012 0v-.5274h-7.012v.5274zm12.011 0v-.5274h-7.011v.5274zm12.012 0v-.5274h-7.012v.5274zm12.012 0v-.5274h-7.012v.5274zm12.012 0v-.5274h-7.012v.5274zm12.011 0v-.5274h-7.011v.5274zm12.012 0v-.5274h-7.012v.5274zm12.012 0v-.5274h-7.012v.5274zm12.011 0v-.5274h-7.011v.5274zm12.012 0v-.5274h-7.012v.5274zm12.012 0v-.5274h-7.012v.5274zm12.012 0v-.5274h-7.012v.5274zm12.011 0v-.5274h-7.011v.5274zm12.012 0v-.5274h-7.012v.5274zm12.012 0v-.5274h-7.012v.5274zm12.011 0v-.5274h-7.011v.5274zm12.012 0v-.5274h-7.012v.5274zm12.012 0v-.5274h-7.012v.5274zm12.012 0v-.5274h-7.012v.5274zm12.011 0v-.5274h-7.011v.5274zm12.012 0v-.5274h-7.012v.5274zm8.711-.6153v-4.92184h-.537v4.92184h-4.512v.5176h4.512v4.9121h.537v-4.9121h4.697v-.5176zm15.313.6153v-.5274h-7.012v.5274zm12.011 0v-.5274h-7.011v.5274zm12.012 0v-.5274h-7.012v.5274zm12.012 0v-.5274h-7.012v.5274zm12.011 0v-.5274h-7.011v.5274zm12.012 0v-.5274h-7.012v.5274zm12.012 0v-.5274h-7.012v.5274zm12.012 0v-.5274h-7.012v.5274zm12.011 0v-.5274h-7.011v.5274zm12.012 0v-.5274h-7.012v.5274zm12.012 0v-.5274h-7.012v.5274zm12.011 0v-.5274h-7.011v.5274zm12.012 0v-.5274h-7.012v.5274zm12.012 0v-.5274h-7.012v.5274zm12.012 0v-.5274h-7.012v.5274zm12.011 0v-.5274h-7.011v.5274zm12.012 0v-.5274h-7.012v.5274zm12.012 0v-.5274h-7.012v.5274zm12.011 0v-.5274h-7.011v.5274zm12.012 0v-.5274h-7.012v.5274zm12.012 0v-.5274h-7.012v.5274zm12.012 0v-.5274h-7.012v.5274zm12.011 0v-.5274h-7.011v.5274zm12.012 0v-.5274h-7.012v.5274zm8.711-.6153v-4.92184h-.537v4.92184h-4.512v.5176h4.512v4.9121h.537v-4.9121h4.697v-.5176z"/><path d="m15.2109 75.1445v-4.9218h-.5371v4.9218h-4.5117v.5176h4.5117v4.9121h.5371v-4.9121h4.6973v-.5176zm15.3125.6153v-.5274h-7.0117v.5274zm12.0118 0v-.5274h-7.0118v.5274zm12.0117 0v-.5274h-7.0117v.5274zm12.0117 0v-.5274h-7.0117v.5274zm12.0117 0v-.5274h-7.0117v.5274zm12.0117 0v-.5274h-7.0117v.5274zm12.012 0v-.5274h-7.012v.5274zm12.011 0v-.5274h-7.011v.5274zm12.012 0v-.5274h-7.012v.5274zm12.012 0v-.5274h-7.012v.5274zm12.012 0v-.5274h-7.012v.5274zm12.011 0v-.5274h-7.011v.5274zm12.012 0v-.5274h-7.012v.5274zm12.012 0v-.5274h-7.012v.5274zm12.012 0v-.5274h-7.012v.5274zm12.011 0v-.5274h-7.011v.5274zm12.012 0v-.5274h-7.012v.5274zm12.012 0v-.5274h-7.012v.5274zm12.011 0v-.5274h-7.011v.5274zm12.012 0v-.5274h-7.012v.5274zm12.012 0v-.5274h-7.012v.5274zm12.012 0v-.5274h-7.012v.5274zm12.011 0v-.5274h-7.011v.5274zm12.012 0v-.5274h-7.012v.5274zm12.012 0v-.5274h-7.012v.5274zm8.711-.6153v-4.9218h-.537v4.9218h-4.512v.5176h4.512v4.9121h.537v-4.9121h4.697v-.5176zm15.312.6153v-.5274h-7.012v.5274zm12.012 0v-.5274h-7.012v.5274zm12.012 0v-.5274h-7.012v.5274zm12.011 0v-.5274h-7.011v.5274zm12.012 0v-.5274h-7.012v.5274zm12.012 0v-.5274h-7.012v.5274zm12.011 0v-.5274h-7.011v.5274zm12.012 0v-.5274h-7.012v.5274zm12.012 0v-.5274h-7.012v.5274zm12.012 0v-.5274h-7.012v.5274zm12.011 0v-.5274h-7.011v.5274zm12.012 0v-.5274h-7.012v.5274zm12.012 0v-.5274h-7.012v.5274zm12.011 0v-.5274h-7.011v.5274zm12.012 0v-.5274h-7.012v.5274zm12.012 0v-.5274h-7.012v.5274zm12.012 0v-.5274h-7.012v.5274zm12.011 0v-.5274h-7.011v.5274zm12.012 0v-.5274h-7.012v.5274zm12.012 0v-.5274h-7.012v.5274zm12.011 0v-.5274h-7.011v.5274zm12.012 0v-.5274h-7.012v.5274zm12.012 0v-.5274h-7.012v.5274zm12.012 0v-.5274h-7.012v.5274zm12.011 0v-.5274h-7.011v.5274zm12.012 0v-.5274h-7.012v.5274zm8.711-.6153v-4.9218h-.537v4.9218h-4.512v.5176h4.512v4.9121h.537v-4.9121h4.697v-.5176zm15.313.6153v-.5274h-7.012v.5274zm12.011 0v-.5274h-7.011v.5274zm12.012 0v-.5274h-7.012v.5274zm12.012 0v-.5274h-7.012v.5274zm12.011 0v-.5274h-7.011v.5274zm12.012 0v-.5274h-7.012v.5274zm12.012 0v-.5274h-7.012v.5274zm12.012 0v-.5274h-7.012v.5274zm12.011 0v-.5274h-7.011v.5274zm12.012 0v-.5274h-7.012v.5274zm12.012 0v-.5274h-7.012v.5274zm12.011 0v-.5274h-7.011v.5274zm12.012 0v-.5274h-7.012v.5274zm12.012 0v-.5274h-7.012v.5274zm12.012 0v-.5274h-7.012v.5274zm12.011 0v-.5274h-7.011v.5274zm12.012 0v-.5274h-7.012v.5274zm12.012 0v-.5274h-7.012v.5274zm12.011 0v-.5274h-7.011v.5274zm12.012 0v-.5274h-7.012v.5274zm12.012 0v-.5274h-7.012v.5274zm12.012 0v-.5274h-7.012v.5274zm12.011 0v-.5274h-7.011v.5274zm12.012 0v-.5274h-7.012v.5274zm8.711-.6153v-4.9218h-.537v4.9218h-4.512v.5176h4.512v4.9121h.537v-4.9121h4.697v-.5176z"/><path d="m15.2109 567.145v-4.922h-.5371v4.922h-4.5117v.517h4.5117v4.912h.5371v-4.912h4.6973v-.517zm15.3125.615v-.528h-7.0117v.528zm12.0118 0v-.528h-7.0118v.528zm12.0117 0v-.528h-7.0117v.528zm12.0117 0v-.528h-7.0117v.528zm12.0117 0v-.528h-7.0117v.528zm12.0117 0v-.528h-7.0117v.528zm12.012 0v-.528h-7.012v.528zm12.011 0v-.528h-7.011v.528zm12.012 0v-.528h-7.012v.528zm12.012 0v-.528h-7.012v.528zm12.012 0v-.528h-7.012v.528zm12.011 0v-.528h-7.011v.528zm12.012 0v-.528h-7.012v.528zm12.012 0v-.528h-7.012v.528zm12.012 0v-.528h-7.012v.528zm12.011 0v-.528h-7.011v.528zm12.012 0v-.528h-7.012v.528zm12.012 0v-.528h-7.012v.528zm12.011 0v-.528h-7.011v.528zm12.012 0v-.528h-7.012v.528zm12.012 0v-.528h-7.012v.528zm12.012 0v-.528h-7.012v.528zm12.011 0v-.528h-7.011v.528zm12.012 0v-.528h-7.012v.528zm12.012 0v-.528h-7.012v.528zm8.711-.615v-4.922h-.537v4.922h-4.512v.517h4.512v4.912h.537v-4.912h4.697v-.517zm15.312.615v-.528h-7.012v.528zm12.012 0v-.528h-7.012v.528zm12.012 0v-.528h-7.012v.528zm12.011 0v-.528h-7.011v.528zm12.012 0v-.528h-7.012v.528zm12.012 0v-.528h-7.012v.528zm12.011 0v-.528h-7.011v.528zm12.012 0v-.528h-7.012v.528zm12.012 0v-.528h-7.012v.528zm12.012 0v-.528h-7.012v.528zm12.011 0v-.528h-7.011v.528zm12.012 0v-.528h-7.012v.528zm12.012 0v-.528h-7.012v.528zm12.011 0v-.528h-7.011v.528zm12.012 0v-.528h-7.012v.528zm12.012 0v-.528h-7.012v.528zm12.012 0v-.528h-7.012v.528zm12.011 0v-.528h-7.011v.528zm12.012 0v-.528h-7.012v.528zm12.012 0v-.528h-7.012v.528zm12.011 0v-.528h-7.011v.528zm12.012 0v-.528h-7.012v.528zm12.012 0v-.528h-7.012v.528zm12.012 0v-.528h-7.012v.528zm12.011 0v-.528h-7.011v.528zm12.012 0v-.528h-7.012v.528zm8.711-.615v-4.922h-.537v4.922h-4.512v.517h4.512v4.912h.537v-4.912h4.697v-.517zm15.313.615v-.528h-7.012v.528zm12.011 0v-.528h-7.011v.528zm12.012 0v-.528h-7.012v.528zm12.012 0v-.528h-7.012v.528zm12.011 0v-.528h-7.011v.528zm12.012 0v-.528h-7.012v.528zm12.012 0v-.528h-7.012v.528zm12.012 0v-.528h-7.012v.528zm12.011 0v-.528h-7.011v.528zm12.012 0v-.528h-7.012v.528zm12.012 0v-.528h-7.012v.528zm12.011 0v-.528h-7.011v.528zm12.012 0v-.528h-7.012v.528zm12.012 0v-.528h-7.012v.528zm12.012 0v-.528h-7.012v.528zm12.011 0v-.528h-7.011v.528zm12.012 0v-.528h-7.012v.528zm12.012 0v-.528h-7.012v.528zm12.011 0v-.528h-7.011v.528zm12.012 0v-.528h-7.012v.528zm12.012 0v-.528h-7.012v.528zm12.012 0v-.528h-7.012v.528zm12.011 0v-.528h-7.011v.528zm12.012 0v-.528h-7.012v.528zm8.711-.615v-4.922h-.537v4.922h-4.512v.517h4.512v4.912h.537v-4.912h4.697v-.517z"/><path d="m14.7598 672.488h-.5274v7.012h.5274zm0-12.011h-.5274v7.011h.5274zm0-12.012h-.5274v7.012h.5274zm0-12.012h-.5274v7.012h.5274zm0-12.012h-.5274v7.012h.5274zm0-12.011h-.5274v7.011h.5274zm0-12.012h-.5274v7.012h.5274zm0-12.012h-.5274v7.012h.5274zm0-12.011h-.5274v7.011h.5274zm0-24.024h-.5274v7.012h.5274zm0-12.012h-.5274v7.012h.5274zm0-12.011h-.5274v7.011h.5274zm0-12.012h-.5274v7.012h.5274zm0-12.012h-.5274v7.012h.5274zm0-12.012h-.5274v7.012h.5274zm0-12.011h-.5274v7.011h.5274zm0-12.012h-.5274v7.012h.5274zm0-12.012h-.5274v7.012h.5274zm0-12.011h-.5274v7.011h.5274zm0-12.012h-.5274v7.012h.5274zm0-12.012h-.5274v7.012h.5274zm0-12.012h-.5274v7.012h.5274zm0-12.011h-.5274v7.011h.5274zm0-12.012h-.5274v7.012h.5274zm0-12.012h-.5274v7.012h.5274zm0-12.011h-.5274v7.011h.5274zm0-12.012h-.5274v7.012h.5274zm0-12.012h-.5274v7.012h.5274zm0-12.012h-.5274v7.012h.5274zm0-12.011h-.5274v7.011h.5274zm0-12.012h-.5274v7.012h.5274zm0-12.012h-.5274v7.012h.5274zm0-12.011h-.5274v7.011h.5274zm0-12.012h-.5274v7.012h.5274zm0-12.012h-.5274v7.012h.5274zm0-12.012h-.5274v7.012h.5274zm0-12.011h-.5274v7.011h.5274zm0-12.012h-.5274v7.012h.5274zm0-12.012h-.5274v7.012h.5274zm0-12.011h-.5274v7.011h.5274zm0-12.012h-.5274v7.012h.5274zm0-12.012h-.5274v7.012h.5274zm0-12.012h-.5274v7.012h.5274zm0-12.011h-.5274v7.011h.5274zm0-12.012h-.5274v7.012h.5274zm0-12.012h-.5274v7.012h.5274zm0-12.011h-.5274v7.011h.5274zm0-12.0122h-.5274v7.0122h.5274zm0-12.0117h-.5274v7.0117h.5274zm0-24.0235h-.5274v7.0117h.5274zm0-12.0117h-.5274v7.0117h.5274zm0-12.0117h-.5274v7.0117h.5274zm0-12.0117h-.5274v7.0117h.5274z"/><path d="m951.76 672.488h-.528v7.012h.528zm0-12.011h-.528v7.011h.528zm0-12.012h-.528v7.012h.528zm0-12.012h-.528v7.012h.528zm0-12.012h-.528v7.012h.528zm0-12.011h-.528v7.011h.528zm0-12.012h-.528v7.012h.528zm0-12.012h-.528v7.012h.528zm0-12.011h-.528v7.011h.528zm0-24.024h-.528v7.012h.528zm0-12.012h-.528v7.012h.528zm0-12.011h-.528v7.011h.528zm0-12.012h-.528v7.012h.528zm0-12.012h-.528v7.012h.528zm0-12.012h-.528v7.012h.528zm0-12.011h-.528v7.011h.528zm0-12.012h-.528v7.012h.528zm0-12.012h-.528v7.012h.528zm0-12.011h-.528v7.011h.528zm0-12.012h-.528v7.012h.528zm0-12.012h-.528v7.012h.528zm0-12.012h-.528v7.012h.528zm0-12.011h-.528v7.011h.528zm0-12.012h-.528v7.012h.528zm0-12.012h-.528v7.012h.528zm0-12.011h-.528v7.011h.528zm0-12.012h-.528v7.012h.528zm0-12.012h-.528v7.012h.528zm0-12.012h-.528v7.012h.528zm0-12.011h-.528v7.011h.528zm0-12.012h-.528v7.012h.528zm0-12.012h-.528v7.012h.528zm0-12.011h-.528v7.011h.528zm0-12.012h-.528v7.012h.528zm0-12.012h-.528v7.012h.528zm0-12.012h-.528v7.012h.528zm0-12.011h-.528v7.011h.528zm0-12.012h-.528v7.012h.528zm0-12.012h-.528v7.012h.528zm0-12.011h-.528v7.011h.528zm0-12.012h-.528v7.012h.528zm0-12.012h-.528v7.012h.528zm0-12.012h-.528v7.012h.528zm0-12.011h-.528v7.011h.528zm0-12.012h-.528v7.012h.528zm0-12.012h-.528v7.012h.528zm0-12.011h-.528v7.011h.528zm0-12.0122h-.528v7.0122h.528zm0-12.0117h-.528v7.0117h.528zm0-24.0235h-.528v7.0117h.528zm0-12.0117h-.528v7.0117h.528zm0-12.0117h-.528v7.0117h.528zm0-12.0117h-.528v7.0117h.528z"/></g></svg>