<svg width="362" height="869" viewBox="0 0 362 869" fill="none" xmlns="http://www.w3.org/2000/svg">
<path d="M14.7598 839.488H14.2324V846.5H14.7598V839.488ZM14.7598 827.477H14.2324V834.488H14.7598V827.477ZM14.7598 815.465H14.2324V822.477H14.7598V815.465ZM14.7598 803.453H14.2324L14.2324 810.465H14.7598L14.7598 803.453ZM14.7598 791.441H14.2324V798.453H14.7598V791.441ZM14.7598 779.43H14.2324V786.441H14.7598V779.43ZM14.7598 767.418H14.2324V774.43H14.7598V767.418ZM14.7598 755.406H14.2324V762.418H14.7598V755.406ZM14.7598 743.395H14.2324L14.2324 750.406H14.7598L14.7598 743.395ZM14.7598 719.371H14.2324V726.383H14.7598V719.371ZM14.7598 707.359H14.2324V714.371H14.7598V707.359ZM14.7598 695.348H14.2324V702.359H14.7598V695.348ZM14.7598 683.336H14.2324L14.2324 690.348H14.7598L14.7598 683.336ZM14.7598 671.324H14.2324V678.336H14.7598V671.324ZM14.7598 659.312H14.2324L14.2324 666.324H14.7598L14.7598 659.312ZM14.7598 647.301H14.2324V654.312H14.7598V647.301ZM14.7598 635.289H14.2324V642.301H14.7598V635.289ZM14.7598 623.277H14.2324V630.289H14.7598V623.277ZM14.7598 611.266H14.2324V618.277H14.7598V611.266ZM14.7598 599.254H14.2324L14.2324 606.266H14.7598L14.7598 599.254ZM14.7598 587.242H14.2324V594.254H14.7598V587.242ZM14.7598 575.23H14.2324V582.242H14.7598V575.23ZM14.7598 563.219H14.2324V570.23H14.7598V563.219ZM14.7598 551.207H14.2324V558.219H14.7598V551.207ZM14.7598 539.195H14.2324L14.2324 546.207H14.7598L14.7598 539.195ZM14.7598 527.184H14.2324V534.195H14.7598V527.184ZM14.7598 515.172H14.2324L14.2324 522.184H14.7598L14.7598 515.172ZM14.7598 503.16H14.2324V510.172H14.7598V503.16ZM14.7598 491.148H14.2324V498.16H14.7598V491.148ZM14.7598 479.137H14.2324V486.148H14.7598V479.137ZM14.7598 467.125H14.2324V474.137H14.7598V467.125ZM14.7598 455.113H14.2324L14.2324 462.125H14.7598L14.7598 455.113ZM14.7598 443.102H14.2324V450.113H14.7598V443.102ZM14.7598 431.09H14.2324V438.102H14.7598V431.09ZM14.7598 419.078H14.2324V426.09H14.7598V419.078ZM14.7598 407.066H14.2324V414.078H14.7598V407.066ZM14.7598 395.055H14.2324L14.2324 402.066H14.7598L14.7598 395.055ZM14.7598 383.043H14.2324V390.055H14.7598V383.043ZM14.7598 371.031H14.2324V378.043H14.7598V371.031ZM14.7598 359.02H14.2324V366.031H14.7598V359.02ZM14.7598 347.008H14.2324V354.02H14.7598V347.008ZM14.7598 334.996H14.2324L14.2324 342.008H14.7598L14.7598 334.996ZM14.7598 322.984H14.2324V329.996H14.7598V322.984ZM14.7598 310.973H14.2324L14.2324 317.984H14.7598L14.7598 310.973ZM14.7598 298.961H14.2324V305.973H14.7598V298.961ZM14.7598 286.949H14.2324V293.961H14.7598V286.949ZM14.7598 274.938H14.2324V281.949H14.7598V274.938ZM14.7598 262.926H14.2324V269.938H14.7598V262.926ZM14.7598 250.914H14.2324L14.2324 257.926H14.7598L14.7598 250.914ZM14.7598 238.902H14.2324V245.914H14.7598V238.902ZM14.7598 226.891H14.2324V233.902H14.7598V226.891ZM14.7598 214.879H14.2324V221.891H14.7598V214.879ZM14.7598 202.867H14.2324V209.879H14.7598V202.867ZM14.7598 190.855H14.2324L14.2324 197.867H14.7598L14.7598 190.855ZM14.7598 178.844H14.2324V185.855H14.7598V178.844ZM14.7598 166.832H14.2324L14.2324 173.844H14.7598L14.7598 166.832ZM14.7598 154.82H14.2324V161.832H14.7598V154.82ZM14.7598 142.809H14.2324V149.82H14.7598V142.809ZM14.7598 130.797H14.2324V137.809H14.7598V130.797ZM14.7598 118.785H14.2324V125.797H14.7598V118.785ZM14.7598 106.773H14.2324L14.2324 113.785H14.7598L14.7598 106.773ZM14.7598 94.7617H14.2324V101.773H14.7598V94.7617ZM14.7598 82.75H14.2324V89.7617H14.7598V82.75ZM14.7598 58.7266H14.2324V65.7383H14.7598V58.7266ZM14.7598 46.7148H14.2324L14.2324 53.7266H14.7598L14.7598 46.7148ZM14.7598 34.7031H14.2324V41.7148H14.7598V34.7031ZM14.7598 22.6914H14.2324V29.7031H14.7598V22.6914Z" fill="black"/>
<path d="M350.76 839.488H350.232V846.5H350.76V839.488ZM350.76 827.477H350.232V834.488H350.76V827.477ZM350.76 815.465H350.232V822.477H350.76V815.465ZM350.76 803.453H350.232V810.465H350.76V803.453ZM350.76 791.441H350.232V798.453H350.76V791.441ZM350.76 779.43H350.232V786.441H350.76V779.43ZM350.76 767.418H350.232V774.43H350.76V767.418ZM350.76 755.406H350.232V762.418H350.76V755.406ZM350.76 743.395H350.232V750.406H350.76V743.395ZM350.76 719.371H350.232V726.383H350.76V719.371ZM350.76 707.359H350.232V714.371H350.76V707.359ZM350.76 695.348H350.232V702.359H350.76V695.348ZM350.76 683.336H350.232V690.348H350.76V683.336ZM350.76 671.324H350.232V678.336H350.76V671.324ZM350.76 659.312H350.232V666.324H350.76V659.312ZM350.76 647.301H350.232V654.312H350.76V647.301ZM350.76 635.289H350.232V642.301H350.76V635.289ZM350.76 623.277H350.232V630.289H350.76V623.277ZM350.76 611.266H350.232V618.277H350.76V611.266ZM350.76 599.254H350.232V606.266H350.76V599.254ZM350.76 587.242H350.232V594.254H350.76V587.242ZM350.76 575.23H350.232V582.242H350.76V575.23ZM350.76 563.219H350.232V570.23H350.76V563.219ZM350.76 551.207H350.232V558.219H350.76V551.207ZM350.76 539.195H350.232V546.207H350.76V539.195ZM350.76 527.184H350.232V534.195H350.76V527.184ZM350.76 515.172H350.232V522.184H350.76V515.172ZM350.76 503.16H350.232V510.172H350.76V503.16ZM350.76 491.148H350.232V498.16H350.76V491.148ZM350.76 479.137H350.232V486.148H350.76V479.137ZM350.76 467.125H350.232V474.137H350.76V467.125ZM350.76 455.113H350.232V462.125H350.76V455.113ZM350.76 443.102H350.232V450.113H350.76V443.102ZM350.76 431.09H350.232V438.102H350.76V431.09ZM350.76 419.078H350.232V426.09H350.76V419.078ZM350.76 407.066H350.232V414.078H350.76V407.066ZM350.76 395.055H350.232V402.066H350.76V395.055ZM350.76 383.043H350.232V390.055H350.76V383.043ZM350.76 371.031H350.232V378.043H350.76V371.031ZM350.76 359.02H350.232V366.031H350.76V359.02ZM350.76 347.008H350.232V354.02H350.76V347.008ZM350.76 334.996H350.232V342.008H350.76V334.996ZM350.76 322.984H350.232V329.996H350.76V322.984ZM350.76 310.973H350.232V317.984H350.76V310.973ZM350.76 298.961H350.232V305.973H350.76V298.961ZM350.76 286.949H350.232V293.961H350.76V286.949ZM350.76 274.938H350.232V281.949H350.76V274.938ZM350.76 262.926H350.232V269.938H350.76V262.926ZM350.76 250.914H350.232V257.926H350.76V250.914ZM350.76 238.902H350.232V245.914H350.76V238.902ZM350.76 226.891H350.232V233.902H350.76V226.891ZM350.76 214.879H350.232V221.891H350.76V214.879ZM350.76 202.867H350.232V209.879H350.76V202.867ZM350.76 190.855H350.232V197.867H350.76V190.855ZM350.76 178.844H350.232V185.855H350.76V178.844ZM350.76 166.832H350.232V173.844H350.76V166.832ZM350.76 154.82H350.232V161.832H350.76V154.82ZM350.76 142.809H350.232V149.82H350.76V142.809ZM350.76 130.797H350.232V137.809H350.76V130.797ZM350.76 118.785H350.232V125.797H350.76V118.785ZM350.76 106.773H350.232V113.785H350.76V106.773ZM350.76 94.7617H350.232V101.773H350.76V94.7617ZM350.76 82.75H350.232V89.7617H350.76V82.75ZM350.76 58.7266H350.232V65.7383H350.76V58.7266ZM350.76 46.7148H350.232V53.7266H350.76V46.7148ZM350.76 34.7031H350.232V41.7148H350.76V34.7031ZM350.76 22.6914H350.232V29.7031H350.76V22.6914Z" fill="black"/>
<path d="M14.2109 14.1445V9.22266H13.6738V14.1445H9.16211V14.6621H13.6738V19.5742H14.2109V14.6621H18.9082V14.1445H14.2109ZM29.5234 14.7598V14.2324H22.5117V14.7598H29.5234ZM41.5352 14.7598V14.2324H34.5234V14.7598H41.5352ZM53.5469 14.7598V14.2324H46.5352V14.7598H53.5469ZM65.5586 14.7598V14.2324H58.5469V14.7598H65.5586ZM77.5703 14.7598V14.2324H70.5586V14.7598H77.5703ZM89.582 14.7598V14.2324H82.5703V14.7598H89.582ZM101.594 14.7598V14.2324H94.582V14.7598H101.594ZM113.605 14.7598V14.2324H106.594V14.7598H113.605ZM125.617 14.7598V14.2324H118.605V14.7598H125.617ZM137.629 14.7598V14.2324H130.617V14.7598H137.629ZM149.641 14.7598V14.2324H142.629V14.7598H149.641ZM161.652 14.7598V14.2324H154.641V14.7598H161.652ZM173.664 14.7598V14.2324H166.652V14.7598H173.664ZM185.676 14.7598V14.2324H178.664V14.7598H185.676ZM197.688 14.7598V14.2324H190.676V14.7598H197.688ZM209.699 14.7598V14.2324H202.688V14.7598H209.699ZM221.711 14.7598V14.2324H214.699V14.7598H221.711ZM233.723 14.7598V14.2324H226.711V14.7598H233.723ZM245.734 14.7598V14.2324H238.723V14.7598H245.734ZM257.746 14.7598V14.2324H250.734V14.7598H257.746ZM269.758 14.7598V14.2324H262.746V14.7598H269.758ZM281.77 14.7598V14.2324H274.758V14.7598H281.77ZM293.781 14.7598V14.2324H286.77V14.7598H293.781ZM305.793 14.7598V14.2324H298.781V14.7598H305.793ZM317.805 14.7598V14.2324H310.793V14.7598H317.805ZM329.816 14.7598V14.2324H322.805V14.7598H329.816ZM341.828 14.7598V14.2324H334.816V14.7598H341.828ZM350.539 14.1445V9.22266H350.002V14.1445H345.49V14.6621H350.002V19.5742H350.539V14.6621H355.236V14.1445H350.539Z" fill="black"/>
<path d="M14.2109 74.1445V69.2227H13.6738V74.1445H9.16211V74.6621H13.6738V79.5742H14.2109V74.6621H18.9082V74.1445H14.2109ZM29.5234 74.7598V74.2324H22.5117V74.7598H29.5234ZM41.5352 74.7598V74.2324H34.5234V74.7598H41.5352ZM53.5469 74.7598V74.2324H46.5352V74.7598H53.5469ZM65.5586 74.7598V74.2324H58.5469V74.7598H65.5586ZM77.5703 74.7598V74.2324H70.5586V74.7598H77.5703ZM89.582 74.7598V74.2324H82.5703V74.7598H89.582ZM101.594 74.7598V74.2324H94.582V74.7598H101.594ZM113.605 74.7598V74.2324H106.594V74.7598H113.605ZM125.617 74.7598V74.2324H118.605V74.7598H125.617ZM137.629 74.7598V74.2324H130.617V74.7598H137.629ZM149.641 74.7598V74.2324H142.629V74.7598H149.641ZM161.652 74.7598V74.2324H154.641V74.7598H161.652ZM173.664 74.7598V74.2324H166.652V74.7598H173.664ZM185.676 74.7598V74.2324H178.664V74.7598H185.676ZM197.688 74.7598V74.2324H190.676V74.7598H197.688ZM209.699 74.7598V74.2324H202.688V74.7598H209.699ZM221.711 74.7598V74.2324H214.699V74.7598H221.711ZM233.723 74.7598V74.2324H226.711V74.7598H233.723ZM245.734 74.7598V74.2324H238.723V74.7598H245.734ZM257.746 74.7598V74.2324H250.734V74.7598H257.746ZM269.758 74.7598V74.2324H262.746V74.7598H269.758ZM281.77 74.7598V74.2324H274.758V74.7598H281.77ZM293.781 74.7598V74.2324H286.77V74.7598H293.781ZM305.793 74.7598V74.2324H298.781V74.7598H305.793ZM317.805 74.7598V74.2324H310.793V74.7598H317.805ZM329.816 74.7598V74.2324H322.805V74.7598H329.816ZM341.828 74.7598V74.2324H334.816V74.7598H341.828ZM350.539 74.1445V69.2227H350.002V74.1445H345.49V74.6621H350.002V79.5742H350.539V74.6621H355.236V74.1445H350.539Z" fill="black"/>
<path d="M14.2109 736.145V731.223H13.6738V736.145H9.16211V736.662H13.6738V741.574H14.2109V736.662H18.9082V736.145H14.2109ZM29.5234 736.76V736.232H22.5117V736.76H29.5234ZM41.5352 736.76V736.232H34.5234V736.76H41.5352ZM53.5469 736.76V736.232H46.5352V736.76H53.5469ZM65.5586 736.76V736.232H58.5469V736.76H65.5586ZM77.5703 736.76V736.232H70.5586V736.76H77.5703ZM89.582 736.76V736.232H82.5703V736.76H89.582ZM101.594 736.76V736.232H94.582V736.76H101.594ZM113.605 736.76V736.232H106.594V736.76H113.605ZM125.617 736.76V736.232H118.605V736.76H125.617ZM137.629 736.76V736.232H130.617V736.76H137.629ZM149.641 736.76V736.232H142.629V736.76H149.641ZM161.652 736.76V736.232H154.641V736.76H161.652ZM173.664 736.76V736.232H166.652V736.76H173.664ZM185.676 736.76V736.232H178.664V736.76H185.676ZM197.688 736.76V736.232H190.676V736.76H197.688ZM209.699 736.76V736.232H202.688V736.76H209.699ZM221.711 736.76V736.232H214.699V736.76H221.711ZM233.723 736.76V736.232H226.711V736.76H233.723ZM245.734 736.76V736.232H238.723V736.76H245.734ZM257.746 736.76V736.232H250.734V736.76H257.746ZM269.758 736.76V736.232H262.746V736.76H269.758ZM281.77 736.76V736.232H274.758V736.76H281.77ZM293.781 736.76V736.232H286.77V736.76H293.781ZM305.793 736.76V736.232H298.781V736.76H305.793ZM317.805 736.76V736.232H310.793V736.76H317.805ZM329.816 736.76V736.232H322.805V736.76H329.816ZM341.828 736.76V736.232H334.816V736.76H341.828ZM350.539 736.145V731.223H350.002V736.145H345.49V736.662H350.002V741.574H350.539V736.662H355.236V736.145H350.539Z" fill="black"/>
<path d="M15.2109 857.145V852.223H14.6738V857.145H10.1621V857.662H14.6738V862.574H15.2109V857.662H19.9082V857.145H15.2109ZM30.5234 857.76V857.232H23.5117V857.76H30.5234ZM42.5352 857.76V857.232H35.5234V857.76H42.5352ZM54.5469 857.76V857.232H47.5352V857.76H54.5469ZM66.5586 857.76V857.232H59.5469V857.76H66.5586ZM78.5703 857.76V857.232H71.5586V857.76H78.5703ZM90.582 857.76V857.232H83.5703V857.76H90.582ZM102.594 857.76V857.232H95.582V857.76H102.594ZM114.605 857.76V857.232H107.594V857.76H114.605ZM126.617 857.76V857.232H119.605V857.76H126.617ZM138.629 857.76V857.232H131.617V857.76H138.629ZM150.641 857.76V857.232H143.629V857.76H150.641ZM162.652 857.76V857.232H155.641V857.76H162.652ZM174.664 857.76V857.232H167.652V857.76H174.664ZM186.676 857.76V857.232H179.664V857.76H186.676ZM198.688 857.76V857.232H191.676V857.76H198.688ZM210.699 857.76V857.232H203.688V857.76H210.699ZM222.711 857.76V857.232H215.699V857.76H222.711ZM234.723 857.76V857.232H227.711V857.76H234.723ZM246.734 857.76V857.232H239.723V857.76H246.734ZM258.746 857.76V857.232H251.734V857.76H258.746ZM270.758 857.76V857.232H263.746V857.76H270.758ZM282.77 857.76V857.232H275.758V857.76H282.77ZM294.781 857.76V857.232H287.77V857.76H294.781ZM306.793 857.76V857.232H299.781V857.76H306.793ZM318.805 857.76V857.232H311.793V857.76H318.805ZM330.816 857.76V857.232H323.805V857.76H330.816ZM342.828 857.76V857.232H335.816V857.76H342.828ZM351.539 857.145V852.223H351.002V857.145H346.49V857.662H351.002V862.574H351.539V857.662H356.236V857.145H351.539Z" fill="black"/>
</svg>
