<svg width="963" height="699" viewBox="0 0 963 699" fill="none" xmlns="http://www.w3.org/2000/svg">
<path d="M14.2109 687.145V682.223H13.6738V687.145H9.16211V687.662H13.6738V692.574H14.2109V687.662H18.9082V687.145H14.2109ZM29.5234 687.76V687.232H22.5117V687.76H29.5234ZM41.5352 687.76V687.232H34.5234V687.76H41.5352ZM53.5469 687.76V687.232H46.5352V687.76H53.5469ZM65.5586 687.76V687.232H58.5469V687.76H65.5586ZM77.5703 687.76V687.232H70.5586V687.76H77.5703ZM89.582 687.76V687.232H82.5703V687.76H89.582ZM101.594 687.76V687.232H94.582V687.76H101.594ZM113.605 687.76V687.232H106.594V687.76H113.605ZM125.617 687.76V687.232H118.605V687.76H125.617ZM137.629 687.76V687.232H130.617V687.76H137.629ZM149.641 687.76V687.232H142.629V687.76H149.641ZM161.652 687.76V687.232H154.641V687.76H161.652ZM173.664 687.76V687.232H166.652V687.76H173.664ZM185.676 687.76V687.232H178.664V687.76H185.676ZM197.688 687.76V687.232H190.676V687.76H197.688ZM209.699 687.76V687.232H202.688V687.76H209.699ZM221.711 687.76V687.232H214.699V687.76H221.711ZM233.723 687.76V687.232H226.711V687.76H233.723ZM245.734 687.76V687.232H238.723V687.76H245.734ZM257.746 687.76V687.232H250.734V687.76H257.746ZM269.758 687.76V687.232H262.746V687.76H269.758ZM281.77 687.76V687.232H274.758V687.76H281.77ZM293.781 687.76V687.232H286.77V687.76H293.781ZM305.793 687.76V687.232H298.781V687.76H305.793ZM317.805 687.76V687.232H310.793V687.76H317.805ZM326.516 687.145V682.223H325.979V687.145H321.467V687.662H325.979V692.574H326.516V687.662H331.213V687.145H326.516ZM341.828 687.76V687.232H334.816V687.76H341.828ZM353.84 687.76V687.232H346.828V687.76H353.84ZM365.852 687.76V687.232H358.84V687.76H365.852ZM377.863 687.76V687.232H370.852V687.76H377.863ZM389.875 687.76V687.232H382.863V687.76H389.875ZM401.887 687.76V687.232H394.875V687.76H401.887ZM413.898 687.76V687.232H406.887V687.76H413.898ZM425.91 687.76V687.232H418.898V687.76H425.91ZM437.922 687.76V687.232H430.91V687.76H437.922ZM449.934 687.76V687.232H442.922V687.76H449.934ZM461.945 687.76V687.232H454.934V687.76H461.945ZM473.957 687.76V687.232H466.945V687.76H473.957ZM485.969 687.76V687.232H478.957V687.76H485.969ZM497.98 687.76V687.232H490.969V687.76H497.98ZM509.992 687.76V687.232H502.98V687.76H509.992ZM522.004 687.76V687.232H514.992V687.76H522.004ZM534.016 687.76V687.232H527.004V687.76H534.016ZM546.027 687.76V687.232H539.016V687.76H546.027ZM558.039 687.76V687.232H551.027V687.76H558.039ZM570.051 687.76V687.232H563.039V687.76H570.051ZM582.062 687.76V687.232H575.051V687.76H582.062ZM594.074 687.76V687.232H587.062V687.76H594.074ZM606.086 687.76V687.232H599.074V687.76H606.086ZM618.098 687.76V687.232H611.086V687.76H618.098ZM630.109 687.76V687.232H623.098V687.76H630.109ZM642.121 687.76V687.232H635.109V687.76H642.121ZM650.832 687.145V682.223H650.295V687.145H645.783V687.662H650.295V692.574H650.832V687.662H655.529V687.145H650.832ZM666.145 687.76V687.232H659.133V687.76H666.145ZM678.156 687.76V687.232H671.145V687.76H678.156ZM690.168 687.76V687.232H683.156V687.76H690.168ZM702.18 687.76V687.232H695.168V687.76H702.18ZM714.191 687.76V687.232H707.18V687.76H714.191ZM726.203 687.76V687.232H719.191V687.76H726.203ZM738.215 687.76V687.232H731.203V687.76H738.215ZM750.227 687.76V687.232H743.215V687.76H750.227ZM762.238 687.76V687.232H755.227V687.76H762.238ZM774.25 687.76V687.232H767.238V687.76H774.25ZM786.262 687.76V687.232H779.25V687.76H786.262ZM798.273 687.76V687.232H791.262V687.76H798.273ZM810.285 687.76V687.232H803.273V687.76H810.285ZM822.297 687.76V687.232H815.285V687.76H822.297ZM834.309 687.76V687.232H827.297V687.76H834.309ZM846.32 687.76V687.232H839.309V687.76H846.32ZM858.332 687.76V687.232H851.32V687.76H858.332ZM870.344 687.76V687.232H863.332V687.76H870.344ZM882.355 687.76V687.232H875.344V687.76H882.355ZM894.367 687.76V687.232H887.355V687.76H894.367ZM906.379 687.76V687.232H899.367V687.76H906.379ZM918.391 687.76V687.232H911.379V687.76H918.391ZM930.402 687.76V687.232H923.391V687.76H930.402ZM942.414 687.76V687.232H935.402V687.76H942.414ZM951.125 687.145V682.223H950.588V687.145H946.076V687.662H950.588V692.574H951.125V687.662H955.822V687.145H951.125Z" fill="black"/>
<path d="M15.2109 14.1445V9.22266H14.6738V14.1445H10.1621V14.6621H14.6738V19.5742H15.2109V14.6621H19.9082V14.1445H15.2109ZM30.5234 14.7598V14.2324H23.5117V14.7598H30.5234ZM42.5352 14.7598V14.2324H35.5234V14.7598H42.5352ZM54.5469 14.7598V14.2324H47.5352V14.7598H54.5469ZM66.5586 14.7598V14.2324H59.5469V14.7598H66.5586ZM78.5703 14.7598V14.2324H71.5586V14.7598H78.5703ZM90.582 14.7598V14.2324H83.5703V14.7598H90.582ZM102.594 14.7598V14.2324H95.582V14.7598H102.594ZM114.605 14.7598V14.2324H107.594V14.7598H114.605ZM126.617 14.7598V14.2324H119.605V14.7598H126.617ZM138.629 14.7598V14.2324H131.617V14.7598H138.629ZM150.641 14.7598V14.2324H143.629V14.7598H150.641ZM162.652 14.7598V14.2324H155.641V14.7598H162.652ZM174.664 14.7598V14.2324H167.652V14.7598H174.664ZM186.676 14.7598V14.2324H179.664V14.7598H186.676ZM198.688 14.7598V14.2324H191.676V14.7598H198.688ZM210.699 14.7598V14.2324H203.688V14.7598H210.699ZM222.711 14.7598V14.2324H215.699V14.7598H222.711ZM234.723 14.7598V14.2324H227.711V14.7598H234.723ZM246.734 14.7598V14.2324H239.723V14.7598H246.734ZM258.746 14.7598V14.2324H251.734V14.7598H258.746ZM270.758 14.7598V14.2324H263.746V14.7598H270.758ZM282.77 14.7598V14.2324H275.758V14.7598H282.77ZM294.781 14.7598V14.2324H287.77V14.7598H294.781ZM306.793 14.7598V14.2324H299.781V14.7598H306.793ZM318.805 14.7598V14.2324H311.793V14.7598H318.805ZM327.516 14.1445V9.22266H326.979V14.1445H322.467V14.6621H326.979V19.5742H327.516V14.6621H332.213V14.1445H327.516ZM342.828 14.7598V14.2324H335.816V14.7598H342.828ZM354.84 14.7598V14.2324H347.828V14.7598H354.84ZM366.852 14.7598V14.2324H359.84V14.7598H366.852ZM378.863 14.7598V14.2324H371.852V14.7598H378.863ZM390.875 14.7598V14.2324H383.863V14.7598H390.875ZM402.887 14.7598V14.2324H395.875V14.7598H402.887ZM414.898 14.7598V14.2324H407.887V14.7598H414.898ZM426.91 14.7598V14.2324H419.898V14.7598H426.91ZM438.922 14.7598V14.2324H431.91V14.7598H438.922ZM450.934 14.7598V14.2324H443.922V14.7598H450.934ZM462.945 14.7598V14.2324H455.934V14.7598H462.945ZM474.957 14.7598V14.2324H467.945V14.7598H474.957ZM486.969 14.7598V14.2324H479.957V14.7598H486.969ZM498.98 14.7598V14.2324H491.969V14.7598H498.98ZM510.992 14.7598V14.2324H503.98V14.7598H510.992ZM523.004 14.7598V14.2324H515.992V14.7598H523.004ZM535.016 14.7598V14.2324H528.004V14.7598H535.016ZM547.027 14.7598V14.2324H540.016V14.7598H547.027ZM559.039 14.7598V14.2324H552.027V14.7598H559.039ZM571.051 14.7598V14.2324H564.039V14.7598H571.051ZM583.062 14.7598V14.2324H576.051V14.7598H583.062ZM595.074 14.7598V14.2324H588.062V14.7598H595.074ZM607.086 14.7598V14.2324H600.074V14.7598H607.086ZM619.098 14.7598V14.2324H612.086V14.7598H619.098ZM631.109 14.7598V14.2324H624.098V14.7598H631.109ZM643.121 14.7598V14.2324H636.109V14.7598H643.121ZM651.832 14.1445V9.22266H651.295V14.1445H646.783V14.6621H651.295V19.5742H651.832V14.6621H656.529V14.1445H651.832ZM667.145 14.7598V14.2324H660.133V14.7598H667.145ZM679.156 14.7598V14.2324H672.145V14.7598H679.156ZM691.168 14.7598V14.2324H684.156V14.7598H691.168ZM703.18 14.7598V14.2324H696.168V14.7598H703.18ZM715.191 14.7598V14.2324H708.18V14.7598H715.191ZM727.203 14.7598V14.2324H720.191V14.7598H727.203ZM739.215 14.7598V14.2324H732.203V14.7598H739.215ZM751.227 14.7598V14.2324H744.215V14.7598H751.227ZM763.238 14.7598V14.2324H756.227V14.7598H763.238ZM775.25 14.7598V14.2324H768.238V14.7598H775.25ZM787.262 14.7598V14.2324H780.25V14.7598H787.262ZM799.273 14.7598V14.2324H792.262V14.7598H799.273ZM811.285 14.7598V14.2324H804.273V14.7598H811.285ZM823.297 14.7598V14.2324H816.285V14.7598H823.297ZM835.309 14.7598V14.2324H828.297V14.7598H835.309ZM847.32 14.7598V14.2324H840.309V14.7598H847.32ZM859.332 14.7598V14.2324H852.32V14.7598H859.332ZM871.344 14.7598V14.2324H864.332V14.7598H871.344ZM883.355 14.7598V14.2324H876.344V14.7598H883.355ZM895.367 14.7598V14.2324H888.355V14.7598H895.367ZM907.379 14.7598V14.2324H900.367V14.7598H907.379ZM919.391 14.7598V14.2324H912.379V14.7598H919.391ZM931.402 14.7598V14.2324H924.391V14.7598H931.402ZM943.414 14.7598V14.2324H936.402V14.7598H943.414ZM952.125 14.1445V9.22266H951.588V14.1445H947.076V14.6621H951.588V19.5742H952.125V14.6621H956.822V14.1445H952.125Z" fill="black"/>
<path d="M15.2109 75.1445V70.2227H14.6738V75.1445H10.1621V75.6621H14.6738V80.5742H15.2109V75.6621H19.9082V75.1445H15.2109ZM30.5234 75.7598V75.2324H23.5117V75.7598H30.5234ZM42.5352 75.7598V75.2324H35.5234V75.7598H42.5352ZM54.5469 75.7598V75.2324H47.5352V75.7598H54.5469ZM66.5586 75.7598V75.2324H59.5469V75.7598H66.5586ZM78.5703 75.7598V75.2324H71.5586V75.7598H78.5703ZM90.582 75.7598V75.2324H83.5703V75.7598H90.582ZM102.594 75.7598V75.2324H95.582V75.7598H102.594ZM114.605 75.7598V75.2324H107.594V75.7598H114.605ZM126.617 75.7598V75.2324H119.605V75.7598H126.617ZM138.629 75.7598V75.2324H131.617V75.7598H138.629ZM150.641 75.7598V75.2324H143.629V75.7598H150.641ZM162.652 75.7598V75.2324H155.641V75.7598H162.652ZM174.664 75.7598V75.2324H167.652V75.7598H174.664ZM186.676 75.7598V75.2324H179.664V75.7598H186.676ZM198.688 75.7598V75.2324H191.676V75.7598H198.688ZM210.699 75.7598V75.2324H203.688V75.7598H210.699ZM222.711 75.7598V75.2324H215.699V75.7598H222.711ZM234.723 75.7598V75.2324H227.711V75.7598H234.723ZM246.734 75.7598V75.2324H239.723V75.7598H246.734ZM258.746 75.7598V75.2324H251.734V75.7598H258.746ZM270.758 75.7598V75.2324H263.746V75.7598H270.758ZM282.77 75.7598V75.2324H275.758V75.7598H282.77ZM294.781 75.7598V75.2324H287.77V75.7598H294.781ZM306.793 75.7598V75.2324H299.781V75.7598H306.793ZM318.805 75.7598V75.2324H311.793V75.7598H318.805ZM327.516 75.1445V70.2227H326.979V75.1445H322.467V75.6621H326.979V80.5742H327.516V75.6621H332.213V75.1445H327.516ZM342.828 75.7598V75.2324H335.816V75.7598H342.828ZM354.84 75.7598V75.2324H347.828V75.7598H354.84ZM366.852 75.7598V75.2324H359.84V75.7598H366.852ZM378.863 75.7598V75.2324H371.852V75.7598H378.863ZM390.875 75.7598V75.2324H383.863V75.7598H390.875ZM402.887 75.7598V75.2324H395.875V75.7598H402.887ZM414.898 75.7598V75.2324H407.887V75.7598H414.898ZM426.91 75.7598V75.2324H419.898V75.7598H426.91ZM438.922 75.7598V75.2324H431.91V75.7598H438.922ZM450.934 75.7598V75.2324H443.922V75.7598H450.934ZM462.945 75.7598V75.2324H455.934V75.7598H462.945ZM474.957 75.7598V75.2324H467.945V75.7598H474.957ZM486.969 75.7598V75.2324H479.957V75.7598H486.969ZM498.98 75.7598V75.2324H491.969V75.7598H498.98ZM510.992 75.7598V75.2324H503.98V75.7598H510.992ZM523.004 75.7598V75.2324H515.992V75.7598H523.004ZM535.016 75.7598V75.2324H528.004V75.7598H535.016ZM547.027 75.7598V75.2324H540.016V75.7598H547.027ZM559.039 75.7598V75.2324H552.027V75.7598H559.039ZM571.051 75.7598V75.2324H564.039V75.7598H571.051ZM583.062 75.7598V75.2324H576.051V75.7598H583.062ZM595.074 75.7598V75.2324H588.062V75.7598H595.074ZM607.086 75.7598V75.2324H600.074V75.7598H607.086ZM619.098 75.7598V75.2324H612.086V75.7598H619.098ZM631.109 75.7598V75.2324H624.098V75.7598H631.109ZM643.121 75.7598V75.2324H636.109V75.7598H643.121ZM651.832 75.1445V70.2227H651.295V75.1445H646.783V75.6621H651.295V80.5742H651.832V75.6621H656.529V75.1445H651.832ZM667.145 75.7598V75.2324H660.133V75.7598H667.145ZM679.156 75.7598V75.2324H672.145V75.7598H679.156ZM691.168 75.7598V75.2324H684.156V75.7598H691.168ZM703.18 75.7598V75.2324H696.168V75.7598H703.18ZM715.191 75.7598V75.2324H708.18V75.7598H715.191ZM727.203 75.7598V75.2324H720.191V75.7598H727.203ZM739.215 75.7598V75.2324H732.203V75.7598H739.215ZM751.227 75.7598V75.2324H744.215V75.7598H751.227ZM763.238 75.7598V75.2324H756.227V75.7598H763.238ZM775.25 75.7598V75.2324H768.238V75.7598H775.25ZM787.262 75.7598V75.2324H780.25V75.7598H787.262ZM799.273 75.7598V75.2324H792.262V75.7598H799.273ZM811.285 75.7598V75.2324H804.273V75.7598H811.285ZM823.297 75.7598V75.2324H816.285V75.7598H823.297ZM835.309 75.7598V75.2324H828.297V75.7598H835.309ZM847.32 75.7598V75.2324H840.309V75.7598H847.32ZM859.332 75.7598V75.2324H852.32V75.7598H859.332ZM871.344 75.7598V75.2324H864.332V75.7598H871.344ZM883.355 75.7598V75.2324H876.344V75.7598H883.355ZM895.367 75.7598V75.2324H888.355V75.7598H895.367ZM907.379 75.7598V75.2324H900.367V75.7598H907.379ZM919.391 75.7598V75.2324H912.379V75.7598H919.391ZM931.402 75.7598V75.2324H924.391V75.7598H931.402ZM943.414 75.7598V75.2324H936.402V75.7598H943.414ZM952.125 75.1445V70.2227H951.588V75.1445H947.076V75.6621H951.588V80.5742H952.125V75.6621H956.822V75.1445H952.125Z" fill="black"/>
<path d="M15.2109 567.145V562.223H14.6738V567.145H10.1621V567.662H14.6738V572.574H15.2109V567.662H19.9082V567.145H15.2109ZM30.5234 567.76V567.232H23.5117V567.76H30.5234ZM42.5352 567.76V567.232H35.5234V567.76H42.5352ZM54.5469 567.76V567.232H47.5352V567.76H54.5469ZM66.5586 567.76V567.232H59.5469V567.76H66.5586ZM78.5703 567.76V567.232H71.5586V567.76H78.5703ZM90.582 567.76V567.232H83.5703V567.76H90.582ZM102.594 567.76V567.232H95.582V567.76H102.594ZM114.605 567.76V567.232H107.594V567.76H114.605ZM126.617 567.76V567.232H119.605V567.76H126.617ZM138.629 567.76V567.232H131.617V567.76H138.629ZM150.641 567.76V567.232H143.629V567.76H150.641ZM162.652 567.76V567.232H155.641V567.76H162.652ZM174.664 567.76V567.232H167.652V567.76H174.664ZM186.676 567.76V567.232H179.664V567.76H186.676ZM198.688 567.76V567.232H191.676V567.76H198.688ZM210.699 567.76V567.232H203.688V567.76H210.699ZM222.711 567.76V567.232H215.699V567.76H222.711ZM234.723 567.76V567.232H227.711V567.76H234.723ZM246.734 567.76V567.232H239.723V567.76H246.734ZM258.746 567.76V567.232H251.734V567.76H258.746ZM270.758 567.76V567.232H263.746V567.76H270.758ZM282.77 567.76V567.232H275.758V567.76H282.77ZM294.781 567.76V567.232H287.77V567.76H294.781ZM306.793 567.76V567.232H299.781V567.76H306.793ZM318.805 567.76V567.232H311.793V567.76H318.805ZM327.516 567.145V562.223H326.979V567.145H322.467V567.662H326.979V572.574H327.516V567.662H332.213V567.145H327.516ZM342.828 567.76V567.232H335.816V567.76H342.828ZM354.84 567.76V567.232H347.828V567.76H354.84ZM366.852 567.76V567.232H359.84V567.76H366.852ZM378.863 567.76V567.232H371.852V567.76H378.863ZM390.875 567.76V567.232H383.863V567.76H390.875ZM402.887 567.76V567.232H395.875V567.76H402.887ZM414.898 567.76V567.232H407.887V567.76H414.898ZM426.91 567.76V567.232H419.898V567.76H426.91ZM438.922 567.76V567.232H431.91V567.76H438.922ZM450.934 567.76V567.232H443.922V567.76H450.934ZM462.945 567.76V567.232H455.934V567.76H462.945ZM474.957 567.76V567.232H467.945V567.76H474.957ZM486.969 567.76V567.232H479.957V567.76H486.969ZM498.98 567.76V567.232H491.969V567.76H498.98ZM510.992 567.76V567.232H503.98V567.76H510.992ZM523.004 567.76V567.232H515.992V567.76H523.004ZM535.016 567.76V567.232H528.004V567.76H535.016ZM547.027 567.76V567.232H540.016V567.76H547.027ZM559.039 567.76V567.232H552.027V567.76H559.039ZM571.051 567.76V567.232H564.039V567.76H571.051ZM583.062 567.76V567.232H576.051V567.76H583.062ZM595.074 567.76V567.232H588.062V567.76H595.074ZM607.086 567.76V567.232H600.074V567.76H607.086ZM619.098 567.76V567.232H612.086V567.76H619.098ZM631.109 567.76V567.232H624.098V567.76H631.109ZM643.121 567.76V567.232H636.109V567.76H643.121ZM651.832 567.145V562.223H651.295V567.145H646.783V567.662H651.295V572.574H651.832V567.662H656.529V567.145H651.832ZM667.145 567.76V567.232H660.133V567.76H667.145ZM679.156 567.76V567.232H672.145V567.76H679.156ZM691.168 567.76V567.232H684.156V567.76H691.168ZM703.18 567.76V567.232H696.168V567.76H703.18ZM715.191 567.76V567.232H708.18V567.76H715.191ZM727.203 567.76V567.232H720.191V567.76H727.203ZM739.215 567.76V567.232H732.203V567.76H739.215ZM751.227 567.76V567.232H744.215V567.76H751.227ZM763.238 567.76V567.232H756.227V567.76H763.238ZM775.25 567.76V567.232H768.238V567.76H775.25ZM787.262 567.76V567.232H780.25V567.76H787.262ZM799.273 567.76V567.232H792.262V567.76H799.273ZM811.285 567.76V567.232H804.273V567.76H811.285ZM823.297 567.76V567.232H816.285V567.76H823.297ZM835.309 567.76V567.232H828.297V567.76H835.309ZM847.32 567.76V567.232H840.309V567.76H847.32ZM859.332 567.76V567.232H852.32V567.76H859.332ZM871.344 567.76V567.232H864.332V567.76H871.344ZM883.355 567.76V567.232H876.344V567.76H883.355ZM895.367 567.76V567.232H888.355V567.76H895.367ZM907.379 567.76V567.232H900.367V567.76H907.379ZM919.391 567.76V567.232H912.379V567.76H919.391ZM931.402 567.76V567.232H924.391V567.76H931.402ZM943.414 567.76V567.232H936.402V567.76H943.414ZM952.125 567.145V562.223H951.588V567.145H947.076V567.662H951.588V572.574H952.125V567.662H956.822V567.145H952.125Z" fill="black"/>
<path d="M14.7598 672.488H14.2324V679.5H14.7598V672.488ZM14.7598 660.477H14.2324V667.488H14.7598V660.477ZM14.7598 648.465H14.2324V655.477H14.7598V648.465ZM14.7598 636.453H14.2324L14.2324 643.465H14.7598L14.7598 636.453ZM14.7598 624.441H14.2324V631.453H14.7598V624.441ZM14.7598 612.43H14.2324V619.441H14.7598V612.43ZM14.7598 600.418H14.2324V607.43H14.7598V600.418ZM14.7598 588.406H14.2324V595.418H14.7598V588.406ZM14.7598 576.395H14.2324L14.2324 583.406H14.7598L14.7598 576.395ZM14.7598 552.371H14.2324V559.383H14.7598V552.371ZM14.7598 540.359H14.2324V547.371H14.7598V540.359ZM14.7598 528.348H14.2324V535.359H14.7598V528.348ZM14.7598 516.336H14.2324L14.2324 523.348H14.7598L14.7598 516.336ZM14.7598 504.324H14.2324V511.336H14.7598V504.324ZM14.7598 492.312H14.2324L14.2324 499.324H14.7598L14.7598 492.312ZM14.7598 480.301H14.2324V487.312H14.7598V480.301ZM14.7598 468.289H14.2324V475.301H14.7598V468.289ZM14.7598 456.277H14.2324V463.289H14.7598V456.277ZM14.7598 444.266H14.2324V451.277H14.7598V444.266ZM14.7598 432.254H14.2324L14.2324 439.266H14.7598L14.7598 432.254ZM14.7598 420.242H14.2324V427.254H14.7598V420.242ZM14.7598 408.23H14.2324V415.242H14.7598V408.23ZM14.7598 396.219H14.2324V403.23H14.7598V396.219ZM14.7598 384.207H14.2324V391.219H14.7598V384.207ZM14.7598 372.195H14.2324L14.2324 379.207H14.7598L14.7598 372.195ZM14.7598 360.184H14.2324V367.195H14.7598V360.184ZM14.7598 348.172H14.2324L14.2324 355.184H14.7598L14.7598 348.172ZM14.7598 336.16H14.2324V343.172H14.7598V336.16ZM14.7598 324.148H14.2324V331.16H14.7598V324.148ZM14.7598 312.137H14.2324V319.148H14.7598V312.137ZM14.7598 300.125H14.2324V307.137H14.7598V300.125ZM14.7598 288.113H14.2324L14.2324 295.125H14.7598L14.7598 288.113ZM14.7598 276.102H14.2324V283.113H14.7598V276.102ZM14.7598 264.09H14.2324V271.102H14.7598V264.09ZM14.7598 252.078H14.2324V259.09H14.7598V252.078ZM14.7598 240.066H14.2324V247.078H14.7598V240.066ZM14.7598 228.055H14.2324L14.2324 235.066H14.7598L14.7598 228.055ZM14.7598 216.043H14.2324V223.055H14.7598V216.043ZM14.7598 204.031H14.2324V211.043H14.7598V204.031ZM14.7598 192.02H14.2324V199.031H14.7598V192.02ZM14.7598 180.008H14.2324V187.02H14.7598V180.008ZM14.7598 167.996H14.2324L14.2324 175.008H14.7598L14.7598 167.996ZM14.7598 155.984H14.2324V162.996H14.7598V155.984ZM14.7598 143.973H14.2324L14.2324 150.984H14.7598L14.7598 143.973ZM14.7598 131.961H14.2324V138.973H14.7598V131.961ZM14.7598 119.949H14.2324V126.961H14.7598V119.949ZM14.7598 107.938H14.2324V114.949H14.7598V107.938ZM14.7598 95.9258H14.2324V102.938H14.7598V95.9258ZM14.7598 83.9141H14.2324L14.2324 90.9258H14.7598L14.7598 83.9141ZM14.7598 59.8906H14.2324V66.9023H14.7598V59.8906ZM14.7598 47.8789H14.2324V54.8906H14.7598V47.8789ZM14.7598 35.8672H14.2324V42.8789H14.7598V35.8672ZM14.7598 23.8555H14.2324L14.2324 30.8672H14.7598L14.7598 23.8555Z" fill="black"/>
<path d="M951.76 672.488H951.232V679.5H951.76V672.488ZM951.76 660.477H951.232V667.488H951.76V660.477ZM951.76 648.465H951.232V655.477H951.76V648.465ZM951.76 636.453H951.232V643.465H951.76V636.453ZM951.76 624.441H951.232V631.453H951.76V624.441ZM951.76 612.43H951.232V619.441H951.76V612.43ZM951.76 600.418H951.232V607.43H951.76V600.418ZM951.76 588.406H951.232V595.418H951.76V588.406ZM951.76 576.395H951.232V583.406H951.76V576.395ZM951.76 552.371H951.232V559.383H951.76V552.371ZM951.76 540.359H951.232V547.371H951.76V540.359ZM951.76 528.348H951.232V535.359H951.76V528.348ZM951.76 516.336H951.232V523.348H951.76V516.336ZM951.76 504.324H951.232V511.336H951.76V504.324ZM951.76 492.312H951.232V499.324H951.76V492.312ZM951.76 480.301H951.232V487.312H951.76V480.301ZM951.76 468.289H951.232V475.301H951.76V468.289ZM951.76 456.277H951.232V463.289H951.76V456.277ZM951.76 444.266H951.232V451.277H951.76V444.266ZM951.76 432.254H951.232V439.266H951.76V432.254ZM951.76 420.242H951.232V427.254H951.76V420.242ZM951.76 408.23H951.232V415.242H951.76V408.23ZM951.76 396.219H951.232V403.23H951.76V396.219ZM951.76 384.207H951.232V391.219H951.76V384.207ZM951.76 372.195H951.232V379.207H951.76V372.195ZM951.76 360.184H951.232V367.195H951.76V360.184ZM951.76 348.172H951.232V355.184H951.76V348.172ZM951.76 336.16H951.232V343.172H951.76V336.16ZM951.76 324.148H951.232V331.16H951.76V324.148ZM951.76 312.137H951.232V319.148H951.76V312.137ZM951.76 300.125H951.232V307.137H951.76V300.125ZM951.76 288.113H951.232V295.125H951.76V288.113ZM951.76 276.102H951.232V283.113H951.76V276.102ZM951.76 264.09H951.232V271.102H951.76V264.09ZM951.76 252.078H951.232V259.09H951.76V252.078ZM951.76 240.066H951.232V247.078H951.76V240.066ZM951.76 228.055H951.232V235.066H951.76V228.055ZM951.76 216.043H951.232V223.055H951.76V216.043ZM951.76 204.031H951.232V211.043H951.76V204.031ZM951.76 192.02H951.232V199.031H951.76V192.02ZM951.76 180.008H951.232V187.02H951.76V180.008ZM951.76 167.996H951.232V175.008H951.76V167.996ZM951.76 155.984H951.232V162.996H951.76V155.984ZM951.76 143.973H951.232V150.984H951.76V143.973ZM951.76 131.961H951.232V138.973H951.76V131.961ZM951.76 119.949H951.232V126.961H951.76V119.949ZM951.76 107.938H951.232V114.949H951.76V107.938ZM951.76 95.9258H951.232V102.938H951.76V95.9258ZM951.76 83.9141H951.232V90.9258H951.76V83.9141ZM951.76 59.8906H951.232V66.9023H951.76V59.8906ZM951.76 47.8789H951.232V54.8906H951.76V47.8789ZM951.76 35.8672H951.232V42.8789H951.76V35.8672ZM951.76 23.8555H951.232V30.8672H951.76V23.8555Z" fill="black"/>
</svg>
