<svg xmlns="http://www.w3.org/2000/svg" viewBox="0 0 2296.47 2632.97"><defs><style>.cls-1,.cls-2{fill:none;stroke-miterlimit:10;}.cls-1{stroke:#fff;opacity:0;}.cls-2{stroke:#010101;stroke-width:4px;}.cls-3{fill:#fff;}</style></defs><g id="Calque_2" data-name="Calque 2"><g id="Calque_1-2" data-name="Calque 1"><rect class="cls-1" x="0.5" y="0.5" width="2295.47" height="2631.97"/><path class="cls-2" d="M1154.07,2169s-381.23,2.3-476.23-64.7c-44.71-31.54-138.46-93.08-138.46-93.08h0"/><path class="cls-2" d="M1153.45,2169s381.23,2.3,476.23-64.7c44.71-31.54,140.23-94.31,140.23-94.31"/><path class="cls-3" d="M1157.49,2327.42l-645.4-47.72L534,2008.55s100.34,66.84,145,98.37c95,67,476.5,63.5,476.5,63.5"/><path class="cls-3" d="M1156.34,2326.72l620.58-64.58-3.11-253.5s-99.42,66-144.13,97.58c-95,67-476.26,64.21-476.26,64.21"/></g></g></svg>