<svg viewBox="0 0 2296.47 2632.97" xmlns="http://www.w3.org/2000/svg"><path d="m.5.5h2295.47v2631.97h-2295.47z" fill="none" opacity="0" stroke="#fff" stroke-miterlimit="10"/><path d="m1339.15 463.49 53.48 36.29a246.58 246.58 0 0 1 -156.23 161.52l-28.4-54.2-.13-.47a185.93 185.93 0 0 0 131.26-143.14z" fill="#fff"/><path d="m1338.88 463.32.27.17a185.55 185.55 0 0 1 -363.56 3.64z" fill="#fff"/><path d="m1208 607.1 28.38 54.2a247.41 247.41 0 0 1 -160.47-.57l27.32-54.94a187.09 187.09 0 0 0 104.64.87z" fill="#fff"/><path d="m1103.25 605.76-27.32 54.94a246.81 246.81 0 0 1 -154.77-161.51l53.62-32h.81a185.65 185.65 0 0 0 127.66 138.63z" fill="#fff"/><path d="m975.49 466.73.1.4h-.81z" fill="#fff"/><g fill="none" stroke-width="4"><path d="m975.49 466.73.1.4a185.55 185.55 0 0 0 363.56-3.64l53.48 36.29a246.32 246.32 0 0 1 -471.47-.59" stroke="#020303" stroke-linecap="round" stroke-linejoin="round"/><path d="m921.16 499.19 53.62-32.03.71-.43" stroke="#010101" stroke-miterlimit="10"/><path d="m1103.25 605.79-27.32 54.94" stroke="#020303" stroke-linecap="round" stroke-linejoin="round"/><path d="m1236.4 661.3-28.38-54.2" stroke="#020303" stroke-linecap="round" stroke-linejoin="round"/><path d="m1338.88 463.32-363.29 3.81-.81.03h-.27" stroke="#020303" stroke-linecap="round" stroke-linejoin="round"/><path d="m995.17 516.16h324.46" stroke="#020303" stroke-linecap="round" stroke-linejoin="round"/></g></svg>