<svg viewBox="0 0 2296.47 2632.97" xmlns="http://www.w3.org/2000/svg"><path d="m.5.5h2295.47v2631.97h-2295.47z" fill="none" opacity="0" stroke="#fff" stroke-miterlimit="10"/><path d="m1384.29 497.07c-54.36 183-224.07 340.41-224.07 340.41-192.09-183-221.08-341.29-221.08-341.29l59.55-42.86 329.81-3.52z" fill="#fff"/><g fill="none" stroke="#010101" stroke-linecap="round" stroke-linejoin="round" stroke-width="4"><path d="m1384.29 497.07c-54.36 183-224.07 340.41-224.07 340.41l-51-51.65c130.47-105.55 217.46-334.26 217.46-334.26z"/><path d="m1160.21 837.47c-192.09-183-221.09-341.29-221.09-341.29l57.75-41.09s63.64 170.33 165.12 279.4"/><path d="m1022.24 514.91 278.46-3.13"/><path d="m996.87 455.09 329.82-3.52"/></g></svg>