<svg viewBox="0 0 2296.47 2632.97" xmlns="http://www.w3.org/2000/svg"><path d="m.5.5h2295.47v2631.97h-2295.47z" fill="none" opacity="0" stroke="#fff" stroke-miterlimit="10"/><path d="m1295.31 692.62-109.18-30.06-11.3 35.2-13.93 43.45-15.08-79.83-111.14 33.82c-68.33-86.8-115.49-200.53-115.49-200.53l76.46-56.17c.22.54 313.13-6.37 313.13-6.37 2.35.48 73.09 54.36 73.09 54.36 3.03.33-50.43 137.51-86.56 206.13z" fill="#fff"/><path d="m1174.83 697.76-27.86 86.89" fill="#fff"/><path d="m1308.77 456.14h-.26" fill="#fff"/><path d="m999.56 456.08-1.01.01" fill="#fff"/><g stroke="#010101" stroke-width="4"><path d="m1186.13 662.56s78-88.15 122.65-230.43l73.09 54.36c3 .32-43.14 124.14-86.56 206.13z" fill="none" stroke-linejoin="round"/><path d="m1145.82 661.38s-111.14-117.2-150.17-222.88l-76.46 56.17s36 84.28 115.49 200.53z" fill="none" stroke-linejoin="round"/><path d="m1186.13 662.56-39.15 122.09" fill="none" stroke-miterlimit="10"/><path d="m1160.9 741.21-15.08-79.83" fill="none" stroke-linecap="round" stroke-linejoin="round"/><path d="m995.65 438.5 313.13-6.37" fill="none" stroke-miterlimit="10"/><path d="m1037.45 520.92 239.62-6.17" fill="none" stroke-miterlimit="10"/><circle cx="1197.09" cy="741.21" fill="#fff" r="12.91" stroke-miterlimit="10"/></g></svg>