<svg viewBox="0 0 2296.47 2632.97" xmlns="http://www.w3.org/2000/svg"><path d="m.5.5h2295.47v2631.97h-2295.47z" fill="none" opacity="0" stroke="#fff" stroke-miterlimit="10"/><path d="m937.22 498.06 37.45-28.9h382l33.71 30s-33.2 172-224.71 172.25c-20.63 0 0 0 0 0s-170.51 19.45-228.45-173.35z" fill="#fff"/><g stroke="#020303" stroke-linejoin="round" stroke-width="4"><circle cx="1190" cy="707.2" fill="#fff" r="9.34" stroke-linecap="round"/><path d="m974.67 469.42-37.45 28.64s37.45 173.6 217.22 173.6" fill="none" stroke-linecap="round"/><path d="m999.3 519.72h336.81" fill="none" stroke-linecap="square"/><path d="m1165.67 782.14v-1.88" fill="none" stroke-linecap="round"/><path d="m1356.67 469.42s-33.67 153.58-191 151.38v159.46l-15-157.29c-131.08-7.49-176-153.55-176-153.55z" fill="none" stroke-linecap="round"/></g><path d="m1356.67 469.43 33.7 29.7s-26.21 180-224.7 172.54v-50.86c157.33 2.19 191-151.38 191-151.38z" fill="#fff"/><path d="m1390.37 499.13s-26.21 180-224.7 172.54v-50.86c157.29 2.17 191-151.38 191-151.38z" fill="none" stroke="#020303" stroke-linecap="round" stroke-linejoin="round" stroke-width="4"/></svg>