<svg viewBox="0 0 2296.47 2632.97" xmlns="http://www.w3.org/2000/svg"><path d="m.5.5h2295.47v2631.97h-2295.47z" fill="none" opacity="0" stroke="#fff" stroke-miterlimit="10"/><path d="m1339.66 464.59 53.48 36.29a246.32 246.32 0 0 1 -471.47-.59l53.62-32h.81a185.55 185.55 0 0 0 363.56-3.65z" fill="#fff"/><path d="m1339.39 464.42.27.17a185.55 185.55 0 0 1 -363.56 3.65l161.81-1.71 19.91 23.57 20.1-24z" fill="#fff"/><path d="m976 467.83.1.41h-.81z" fill="#fff"/><g fill="none" stroke-width="4"><path d="m976 467.83.1.41a185.55 185.55 0 0 0 363.56-3.65l53.48 36.29a246.32 246.32 0 0 1 -471.47-.59" stroke="#020303" stroke-linecap="round" stroke-linejoin="round"/><path d="m921.67 500.29 53.62-32.02.71-.44" stroke="#010101" stroke-miterlimit="10"/><path d="m1339.39 464.42-161.47 1.68-20.1 24-19.91-23.57-161.81 1.71-.81.03-.27-.01" stroke="#020303" stroke-linecap="round" stroke-linejoin="round"/><path d="m995.69 517.25h324.45" stroke="#020303" stroke-linecap="round" stroke-linejoin="round"/><path d="m946.73 485.47s44.82 160.94 211.38 160.94c167 0 209.83-162.63 209.83-162.63" stroke="#020303" stroke-linecap="round" stroke-linejoin="round"/></g></svg>