<svg xmlns="http://www.w3.org/2000/svg" viewBox="0 0 2298.47 2634.97"><defs><style>.cls-1,.cls-3,.cls-4{fill:none;stroke-miterlimit:10;}.cls-1{stroke:#fff;stroke-width:3px;opacity:0;}.cls-2{fill:#fff;}.cls-3{stroke:#010101;}.cls-3,.cls-4{stroke-width:4px;}.cls-4{stroke:#020202;}</style></defs><g id="Calque_2" data-name="Calque 2"><g id="Calque_1-2" data-name="Calque 1"><rect class="cls-1" x="1.5" y="1.5" width="2295.47" height="2631.97"/><path class="cls-2" d="M2116.5,1005.07l-8.73,36.74s-238.23,4.75-296.71,77.83l0,0a158,158,0,0,0-22.46,38.65c-45.11,108.26-27.52,336.64-14.76,926.1l-41.13,9c-10.25-213.82-34.82-827.73,15.2-958.9a94.2,94.2,0,0,1,4.91-10.81c10.81-19.74,28.48-36.06,50.42-49.58C1910.71,1007.94,2116.5,1005.07,2116.5,1005.07Z"/><line class="cls-3" x1="1811.22" y1="1120.75" x2="1811.02" y2="1119.68"/><path class="cls-3" d="M1773.8,2084.43c-12.76-589.46-30.35-817.84,14.76-926.1"/><path class="cls-3" d="M1788.56,1158.33a158,158,0,0,1,22.46-38.65l0,0c58.48-73.08,296.71-77.83,296.71-77.83l8.73-36.74s-205.79,2.87-313.3,69.09c-21.94,13.52-39.61,29.84-50.42,49.58a94.2,94.2,0,0,0-4.91,10.81"/><path class="cls-3" d="M1747.87,1134.55c-50,131.17-25.45,745.08-15.2,958.9"/><line class="cls-3" x1="1732.67" y1="2093.45" x2="1773.8" y2="2084.43"/><path class="cls-2" d="M567,1121c52.13,137.2,24.81,811.51,15,1018.59l-44.43-10.12c13.07-628.51,37.77-863.77-10.24-973.83h0A155.75,155.75,0,0,0,508,1122.32c-58.63-76.28-298.89-80.86-298.89-80.86l-11.2-46.8c6.87,0,216.36,3.58,329.54,75.45,14.9,11.82,27.06,25.4,35.22,41A84.45,84.45,0,0,1,567,1121Z"/><path class="cls-4" d="M527.4,1155.59c48,110.06,23.31,345.32,10.24,973.83"/><path class="cls-4" d="M567,1121a84.45,84.45,0,0,0-4.38-9.87c-8.16-15.57-20.32-29.15-35.22-41-113.18-71.87-322.67-75.5-329.54-75.45l11.2,46.8S449.36,1046,508,1122.32a155.75,155.75,0,0,1,19.36,33.27h0"/><path class="cls-4" d="M567,1121c52.13,137.2,24.81,811.51,15,1018.59"/><line class="cls-4" x1="537.64" y1="2129.42" x2="582.07" y2="2139.54"/></g></g></svg>