<svg xmlns="http://www.w3.org/2000/svg" xmlns:xlink="http://www.w3.org/1999/xlink" viewBox="0 0 3141.87 3376.44"><defs><style>.cls-1,.cls-2,.cls-4{fill:none;}.cls-2{stroke:#fff;stroke-width:3px;opacity:0;}.cls-2,.cls-4{stroke-miterlimit:10;}.cls-3{clip-path:url(#clip-path);}.cls-4{stroke:#010101;stroke-width:4px;}</style><clipPath id="clip-path" transform="translate(843.4 741.46)"><path class="cls-1" d="M526.4,1141.41a148.78,148.78,0,0,0-19.28-31.75c-58.24-72.8-299.89-75.88-299.89-75.88L135,730.27l802.9-231.15c.29.35.6.73,1,1.12l.06.07a97,97,0,0,0,12.94,11.26h0c18.75,14.15,53,34.3,96.92,49.31h-.83s-14,8.42-36.33,24.14l-.29.2C950.17,628.3,827,725.69,755.9,854.89c-113.68,206.59-228.61,285.91-229.5,286.52h0v0"/></clipPath></defs><g id="Calque_2" data-name="Calque 2"><g id="Calque_1-2" data-name="Calque 1"><rect class="cls-2" x="844.9" y="742.96" width="2295.47" height="2631.97"/><g class="cls-3"><line class="cls-4" x1="255.07" y1="881.6" x2="2670.26" y2="792.8"/><line class="cls-4" x1="267.27" y1="1032.02" x2="2682.46" y2="943.22"/><line class="cls-4" x1="279.47" y1="1182.45" x2="2694.66" y2="1093.65"/><line class="cls-4" x1="291.66" y1="1332.87" x2="2706.85" y2="1244.07"/><line class="cls-4" x1="303.86" y1="1483.3" x2="2719.05" y2="1394.5"/><line class="cls-4" x1="316.06" y1="1633.73" x2="2731.24" y2="1544.93"/><line class="cls-4" x1="307.9" y1="1779.4" x2="2723.09" y2="1690.6"/><line class="cls-4" x1="320.09" y1="1929.82" x2="2735.28" y2="1841.02"/><line class="cls-4" x1="332.29" y1="2080.25" x2="2747.48" y2="1991.45"/><line class="cls-4" x1="344.49" y1="2230.68" x2="2759.67" y2="2141.88"/><line class="cls-4" x1="356.68" y1="2381.1" x2="2771.87" y2="2292.3"/><line class="cls-4" x1="368.88" y1="2531.53" x2="2784.07" y2="2442.73"/><line class="cls-4" x1="963.41" y1="2587.28" x2="2194.74" y2="507.66"/><line class="cls-4" x1="1045.18" y1="2627.96" x2="2276.51" y2="548.33"/><line class="cls-4" x1="1126.96" y1="2668.64" x2="2358.29" y2="589.01"/><line class="cls-4" x1="1208.74" y1="2709.32" x2="2440.06" y2="629.69"/><line class="cls-4" x1="1290.51" y1="2749.99" x2="2521.84" y2="670.37"/><line class="cls-4" x1="1372.29" y1="2790.67" x2="2603.62" y2="711.05"/><line class="cls-4" x1="1440.93" y1="2847.01" x2="2672.26" y2="767.38"/><line class="cls-4" x1="1522.71" y1="2887.69" x2="2754.03" y2="808.06"/><line class="cls-4" x1="1604.48" y1="2928.37" x2="2835.81" y2="848.74"/><line class="cls-4" x1="1686.26" y1="2969.04" x2="2917.59" y2="889.42"/><line class="cls-4" x1="1768.03" y1="3009.72" x2="2999.36" y2="930.09"/><line class="cls-4" x1="1849.81" y1="3050.4" x2="3081.14" y2="970.77"/><line class="cls-4" x1="1.72" y1="2080.65" x2="1233.05" y2="1.02"/><line class="cls-4" x1="83.5" y1="2121.32" x2="1314.83" y2="41.7"/><line class="cls-4" x1="165.27" y1="2162" x2="1396.6" y2="82.37"/><line class="cls-4" x1="247.05" y1="2202.68" x2="1478.38" y2="123.05"/><line class="cls-4" x1="328.83" y1="2243.36" x2="1560.15" y2="163.73"/><line class="cls-4" x1="410.6" y1="2284.04" x2="1641.93" y2="204.41"/><line class="cls-4" x1="479.24" y1="2340.37" x2="1710.57" y2="260.75"/><line class="cls-4" x1="561.02" y1="2381.05" x2="1792.35" y2="301.42"/><line class="cls-4" x1="642.8" y1="2421.73" x2="1874.12" y2="342.1"/><line class="cls-4" x1="724.57" y1="2462.41" x2="1955.9" y2="382.78"/><line class="cls-4" x1="806.35" y1="2503.08" x2="2037.68" y2="423.46"/><line class="cls-4" x1="888.12" y1="2543.76" x2="2119.45" y2="464.13"/></g></g></g></svg>