<svg xmlns="http://www.w3.org/2000/svg" xmlns:xlink="http://www.w3.org/1999/xlink" viewBox="0 0 2851.26 2793.05"><defs><style>.cls-1,.cls-2,.cls-4{fill:none;}.cls-2{stroke:#fff;stroke-miterlimit:10;stroke-width:3px;opacity:0;}.cls-3{clip-path:url(#clip-path);}.cls-4{stroke:#010101;stroke-linecap:round;stroke-linejoin:round;stroke-width:4px;}</style><clipPath id="clip-path" transform="translate(552.79 158.07)"><path class="cls-1" d="M527.4,1140.4a148.78,148.78,0,0,0-19.28-31.75c-58.24-72.8-299.89-75.88-299.89-75.88L136,729.26l802.9-231.15c.29.35.6.73,1,1.12l.06.07a97,97,0,0,0,12.94,11.26h0c18.75,14.15,53,34.3,96.92,49.31h-.83s-14,8.42-36.33,24.14l-.29.2C951.17,627.29,828,724.68,756.9,853.88c-113.68,206.59-228.61,285.91-229.5,286.52h0v0"/></clipPath></defs><g id="Calque_2" data-name="Calque 2"><g id="Calque_1-2" data-name="Calque 1"><rect class="cls-2" x="554.29" y="159.57" width="2295.47" height="2631.97"/><g class="cls-3"><line class="cls-4" x1="1215.45" y1="2" x2="2596.94" y2="1223.4"/><line class="cls-4" x1="1141.27" y1="85.91" x2="2522.76" y2="1307.31"/><line class="cls-4" x1="987.6" y1="259.72" x2="2369.09" y2="1481.12"/><line class="cls-4" x1="913.41" y1="343.63" x2="2294.9" y2="1565.03"/><line class="cls-4" x1="759.74" y1="517.44" x2="2141.24" y2="1738.84"/><line class="cls-4" x1="685.56" y1="601.35" x2="2067.05" y2="1822.75"/><line class="cls-4" x1="531.89" y1="775.16" x2="1913.38" y2="1996.56"/><line class="cls-4" x1="457.71" y1="859.06" x2="1839.2" y2="2080.46"/><line class="cls-4" x1="304.04" y1="1032.87" x2="1685.53" y2="2254.27"/><line class="cls-4" x1="229.85" y1="1116.78" x2="1611.34" y2="2338.18"/><line class="cls-4" x1="76.18" y1="1290.59" x2="1457.68" y2="2511.99"/><line class="cls-4" x1="2" y1="1374.5" x2="1383.49" y2="2595.9"/></g></g></g></svg>