<svg xmlns="http://www.w3.org/2000/svg" xmlns:xlink="http://www.w3.org/1999/xlink" viewBox="0 0 2296.47 2632.97"><defs><style>.cls-1,.cls-2,.cls-4{fill:none;}.cls-2{stroke:#fff;opacity:0;}.cls-2,.cls-4{stroke-miterlimit:10;}.cls-3{clip-path:url(#clip-path);}.cls-4{stroke:#010101;stroke-width:2px;}</style><clipPath id="clip-path"><path class="cls-1" d="M524.91,1145c47.49,129,22.94,471,10,1071.74l1238-22c-12.78-591.88-32.29-916,13.72-1045.19l.21.06.29.09.19,0,.07,0-.26-.07-.29-.09-.21-.06c-8.86-2.75-94.1-33.84-187-235.44-83.29-180.8-290.62-319.3-337.06-348.67-43.92,14.19-87,17.16-126.66,13.56a377.12,377.12,0,0,1-85.26-18.12l.14-.09.09,0-.23.14c-7.54,4.59-198.4,121.89-293.84,295.32-108,196.23-220,280.2-231.88,288.8l-.63.44-.29.21-.11.07,0,0"/></clipPath></defs><g id="Calque_2" data-name="Calque 2"><g id="Calque_1-2" data-name="Calque 1"><rect class="cls-2" x="0.5" y="0.5" width="2295.47" height="2631.97"/><g class="cls-3"><line class="cls-4" x1="1161.86" y1="1359.26" x2="1161.86" y2="43.26"/><line class="cls-4" x1="1175.52" y1="1359.26" x2="1175.52" y2="43.26"/><line class="cls-4" x1="1189.17" y1="1359.26" x2="1189.17" y2="43.26"/><line class="cls-4" x1="1202.82" y1="1359.26" x2="1202.82" y2="43.26"/><line class="cls-4" x1="1216.47" y1="1359.26" x2="1216.47" y2="43.26"/><line class="cls-4" x1="1230.12" y1="1359.26" x2="1230.12" y2="43.26"/><line class="cls-4" x1="1243.78" y1="1359.26" x2="1243.78" y2="43.26"/><line class="cls-4" x1="1257.43" y1="1359.26" x2="1257.43" y2="43.26"/><line class="cls-4" x1="1271.08" y1="1359.26" x2="1271.08" y2="43.26"/><line class="cls-4" x1="1284.73" y1="1359.26" x2="1284.73" y2="43.26"/><line class="cls-4" x1="1298.39" y1="1359.26" x2="1298.39" y2="43.26"/><line class="cls-4" x1="1312.04" y1="1359.26" x2="1312.04" y2="43.26"/><line class="cls-4" x1="1325.69" y1="1359.26" x2="1325.69" y2="43.26"/><line class="cls-4" x1="1339.34" y1="1359.26" x2="1339.34" y2="43.26"/><line class="cls-4" x1="1352.99" y1="1359.26" x2="1352.99" y2="43.26"/><line class="cls-4" x1="1366.65" y1="1359.26" x2="1366.65" y2="43.26"/><line class="cls-4" x1="1380.3" y1="1359.26" x2="1380.3" y2="43.26"/><line class="cls-4" x1="1393.95" y1="1359.26" x2="1393.95" y2="43.26"/><line class="cls-4" x1="1407.6" y1="1359.26" x2="1407.6" y2="43.26"/><line class="cls-4" x1="1421.26" y1="1359.26" x2="1421.26" y2="43.26"/><line class="cls-4" x1="1434.91" y1="1359.26" x2="1434.91" y2="43.26"/><line class="cls-4" x1="1448.56" y1="1359.26" x2="1448.56" y2="43.26"/><line class="cls-4" x1="1462.21" y1="1359.26" x2="1462.21" y2="43.26"/><line class="cls-4" x1="1475.86" y1="1359.26" x2="1475.86" y2="43.26"/><line class="cls-4" x1="1489.86" y1="1359.26" x2="1489.86" y2="43.26"/><line class="cls-4" x1="1503.52" y1="1359.26" x2="1503.52" y2="43.26"/><line class="cls-4" x1="1517.17" y1="1359.26" x2="1517.17" y2="43.26"/><line class="cls-4" x1="1530.82" y1="1359.26" x2="1530.82" y2="43.26"/><line class="cls-4" x1="1544.47" y1="1359.26" x2="1544.47" y2="43.26"/><line class="cls-4" x1="1558.12" y1="1359.26" x2="1558.12" y2="43.26"/><line class="cls-4" x1="1571.78" y1="1359.26" x2="1571.78" y2="43.26"/><line class="cls-4" x1="1585.43" y1="1359.26" x2="1585.43" y2="43.26"/><line class="cls-4" x1="1599.08" y1="1359.26" x2="1599.08" y2="43.26"/><line class="cls-4" x1="1612.73" y1="1359.26" x2="1612.73" y2="43.26"/><line class="cls-4" x1="1626.39" y1="1359.26" x2="1626.39" y2="43.26"/><line class="cls-4" x1="1640.04" y1="1359.26" x2="1640.04" y2="43.26"/><line class="cls-4" x1="1653.69" y1="1359.26" x2="1653.69" y2="43.26"/><line class="cls-4" x1="1667.34" y1="1359.26" x2="1667.34" y2="43.26"/><line class="cls-4" x1="1680.99" y1="1359.26" x2="1680.99" y2="43.26"/><line class="cls-4" x1="1694.65" y1="1359.26" x2="1694.65" y2="43.26"/><line class="cls-4" x1="1708.3" y1="1359.26" x2="1708.3" y2="43.26"/><line class="cls-4" x1="1721.95" y1="1359.26" x2="1721.95" y2="43.26"/><line class="cls-4" x1="1735.6" y1="1359.26" x2="1735.6" y2="43.26"/><line class="cls-4" x1="1749.26" y1="1359.26" x2="1749.26" y2="43.26"/><line class="cls-4" x1="1762.91" y1="1359.26" x2="1762.91" y2="43.26"/><line class="cls-4" x1="1776.56" y1="1359.26" x2="1776.56" y2="43.26"/><line class="cls-4" x1="1790.21" y1="1359.26" x2="1790.21" y2="43.26"/><line class="cls-4" x1="1803.86" y1="1359.26" x2="1803.86" y2="43.26"/><line class="cls-4" x1="519.86" y1="2611.26" x2="519.86" y2="1359.26"/><line class="cls-4" x1="533.52" y1="2611.26" x2="533.52" y2="1359.26"/><line class="cls-4" x1="547.17" y1="2611.26" x2="547.17" y2="1359.26"/><line class="cls-4" x1="560.82" y1="2611.26" x2="560.82" y2="1359.26"/><line class="cls-4" x1="574.47" y1="2611.26" x2="574.47" y2="1359.26"/><line class="cls-4" x1="588.12" y1="2611.26" x2="588.12" y2="1359.26"/><line class="cls-4" x1="601.78" y1="2611.26" x2="601.78" y2="1359.26"/><line class="cls-4" x1="615.43" y1="2611.26" x2="615.43" y2="1359.26"/><line class="cls-4" x1="629.08" y1="2611.26" x2="629.08" y2="1359.26"/><line class="cls-4" x1="642.73" y1="2611.26" x2="642.73" y2="1359.26"/><line class="cls-4" x1="656.39" y1="2611.26" x2="656.39" y2="1359.26"/><line class="cls-4" x1="670.04" y1="2611.26" x2="670.04" y2="1359.26"/><line class="cls-4" x1="683.69" y1="2611.26" x2="683.69" y2="1359.26"/><line class="cls-4" x1="697.34" y1="2611.26" x2="697.34" y2="1359.26"/><line class="cls-4" x1="710.99" y1="2611.26" x2="710.99" y2="1359.26"/><line class="cls-4" x1="724.65" y1="2611.26" x2="724.65" y2="1359.26"/><line class="cls-4" x1="738.3" y1="2611.26" x2="738.3" y2="1359.26"/><line class="cls-4" x1="751.95" y1="2611.26" x2="751.95" y2="1359.26"/><line class="cls-4" x1="765.6" y1="2611.26" x2="765.6" y2="1359.26"/><line class="cls-4" x1="779.25" y1="2611.26" x2="779.25" y2="1359.26"/><line class="cls-4" x1="792.91" y1="2611.26" x2="792.91" y2="1359.26"/><line class="cls-4" x1="806.56" y1="2611.26" x2="806.56" y2="1359.26"/><line class="cls-4" x1="820.21" y1="2611.26" x2="820.21" y2="1359.26"/><line class="cls-4" x1="833.86" y1="2611.26" x2="833.86" y2="1359.26"/><line class="cls-4" x1="847.86" y1="2611.26" x2="847.86" y2="1359.26"/><line class="cls-4" x1="861.52" y1="2611.26" x2="861.52" y2="1359.26"/><line class="cls-4" x1="875.17" y1="2611.26" x2="875.17" y2="1359.26"/><line class="cls-4" x1="888.82" y1="2611.26" x2="888.82" y2="1359.26"/><line class="cls-4" x1="902.47" y1="2611.26" x2="902.47" y2="1359.26"/><line class="cls-4" x1="916.12" y1="2611.26" x2="916.12" y2="1359.26"/><line class="cls-4" x1="929.78" y1="2611.26" x2="929.78" y2="1359.26"/><line class="cls-4" x1="943.43" y1="2611.26" x2="943.43" y2="1359.26"/><line class="cls-4" x1="957.08" y1="2611.26" x2="957.08" y2="1359.26"/><line class="cls-4" x1="970.73" y1="2611.26" x2="970.73" y2="1359.26"/><line class="cls-4" x1="984.39" y1="2611.26" x2="984.39" y2="1359.26"/><line class="cls-4" x1="998.04" y1="2611.26" x2="998.04" y2="1359.26"/><line class="cls-4" x1="1011.69" y1="2611.26" x2="1011.69" y2="1359.26"/><line class="cls-4" x1="1025.34" y1="2611.26" x2="1025.34" y2="1359.26"/><line class="cls-4" x1="1038.99" y1="2611.26" x2="1038.99" y2="1359.26"/><line class="cls-4" x1="1052.65" y1="2611.26" x2="1052.65" y2="1359.26"/><line class="cls-4" x1="1066.3" y1="2611.26" x2="1066.3" y2="1359.26"/><line class="cls-4" x1="1079.95" y1="2611.26" x2="1079.95" y2="1359.26"/><line class="cls-4" x1="1093.6" y1="2611.26" x2="1093.6" y2="1359.26"/><line class="cls-4" x1="1107.25" y1="2611.26" x2="1107.25" y2="1359.26"/><line class="cls-4" x1="1120.91" y1="2611.26" x2="1120.91" y2="1359.26"/><line class="cls-4" x1="1134.56" y1="2611.26" x2="1134.56" y2="1359.26"/><line class="cls-4" x1="1148.21" y1="2611.26" x2="1148.21" y2="1359.26"/><line class="cls-4" x1="1161.86" y1="2611.26" x2="1161.86" y2="1359.26"/></g></g></g></svg>