<svg xmlns="http://www.w3.org/2000/svg" xmlns:xlink="http://www.w3.org/1999/xlink" viewBox="0 0 2296.47 2632.97"><defs><style>.cls-1,.cls-2,.cls-4{fill:none;}.cls-2{stroke:#fff;stroke-miterlimit:10;opacity:0;}.cls-3{clip-path:url(#clip-path);}.cls-4{stroke:#010101;stroke-linecap:round;stroke-linejoin:round;stroke-width:4px;}</style><clipPath id="clip-path"><path class="cls-1" d="M523.9,1142c47.49,129,22.94,471,10,1071.74l1238-22c-12.78-591.88-32.29-916,13.72-1045.19l.21.06.29.09.19,0,.07,0-.26-.07-.29-.09-.21-.06c-8.86-2.75-94.1-33.84-187-235.44-83.29-180.8-290.62-319.3-337.06-348.67-43.92,14.19-87,17.16-126.66,13.56a377.12,377.12,0,0,1-85.26-18.12l.14-.09.09,0-.23.14c-7.54,4.59-198.4,121.89-293.84,295.32-108,196.23-220,280.2-231.88,288.8l-.63.44-.29.21-.11.07,0,0"/></clipPath></defs><g id="Calque_2" data-name="Calque 2"><g id="Calque_1-2" data-name="Calque 1"><rect class="cls-2" x="0.5" y="0.5" width="2295.47" height="2631.97"/><g class="cls-3"><line class="cls-4" x1="232.85" y1="809.76" x2="2076.85" y2="809.76"/><line class="cls-4" x1="232.85" y1="921.76" x2="2076.85" y2="921.76"/><line class="cls-4" x1="232.85" y1="1153.76" x2="2076.85" y2="1153.76"/><line class="cls-4" x1="232.85" y1="1265.76" x2="2076.85" y2="1265.76"/><line class="cls-4" x1="232.85" y1="1497.76" x2="2076.85" y2="1497.76"/><line class="cls-4" x1="232.85" y1="1609.76" x2="2076.85" y2="1609.76"/><line class="cls-4" x1="232.85" y1="1841.76" x2="2076.85" y2="1841.76"/><line class="cls-4" x1="232.85" y1="1953.76" x2="2076.85" y2="1953.76"/></g></g></g></svg>