<svg xmlns="http://www.w3.org/2000/svg" xmlns:xlink="http://www.w3.org/1999/xlink" viewBox="0 0 2296.47 2632.97"><defs><style>.cls-1,.cls-2{fill:none;}.cls-2{stroke:#fff;stroke-miterlimit:10;opacity:0;}.cls-3{clip-path:url(#clip-path);}.cls-4{fill:url(#Dégradé_sans_nom_16);}.cls-5{fill:url(#Dégradé_sans_nom_16-2);}.cls-6{fill:url(#Dégradé_sans_nom_16-3);}.cls-7{fill:url(#Dégradé_sans_nom_16-4);}</style><clipPath id="clip-path"><path class="cls-1" d="M522.15,1146.36c1,2.57,1.86,5.22,2.75,8v0c8.24,25.36,14.08,58,18.05,98.19v0c8.69,88,8.44,212.08,4.72,375.42h0c0,.67,0,1.35,0,2-2.85,124.44-7.68,271.55-12.07,442.66q-1.8,70-3.46,145.43l24.79-.44,77.81-1.38,1135.4-20.18c-12.78-591.88-32.29-916,13.72-1045.19l.21.06.29.09.11,0,.15,0-.76-.22c-8.86-2.75-94.1-33.84-187-235.44-83.29-180.8-290.62-319.3-337.06-348.67-43.92,14.19-87,17.16-126.66,13.56a377.12,377.12,0,0,1-85.26-18.12l.23-.14-.23.14c-7.54,4.59-198.4,121.89-293.84,295.32-105.18,191.14-214.16,275.77-230.75,288l-1.13.83-.63.44-.29.21-.11.07,0,0"/></clipPath><linearGradient id="Dégradé_sans_nom_16" x1="755.28" y1="1087.64" x2="755.28" y2="2298.91" gradientUnits="userSpaceOnUse"><stop offset="0" stop-color="#010101" stop-opacity="0"/><stop offset="1" stop-color="#010101" stop-opacity="0.3"/></linearGradient><linearGradient id="Dégradé_sans_nom_16-2" x1="1020.31" y1="1086.6" x2="1020.31" y2="2297.86" xlink:href="#Dégradé_sans_nom_16"/><linearGradient id="Dégradé_sans_nom_16-3" x1="1285.35" y1="1095.65" x2="1285.35" y2="2306.91" xlink:href="#Dégradé_sans_nom_16"/><linearGradient id="Dégradé_sans_nom_16-4" x1="1550.38" y1="1095.65" x2="1550.38" y2="2306.91" xlink:href="#Dégradé_sans_nom_16"/></defs><g id="Calque_2" data-name="Calque 2"><g id="Calque_1-2" data-name="Calque 1"><rect class="cls-2" x="0.5" y="0.5" width="2295.47" height="2631.97"/><g class="cls-3"><path class="cls-4" d="M843.37,2281.23c-1.59,13.6-33.55-22.32-47.24-22.32s-13.69,40-27.38,40-13.69-40-27.38-40-13.69,40-27.39,40-5.92-8.72-7.51-22.32c-13.6-116.33-39.87-114.8-39.87-231.93s40-117.12,40-234.25-40-117.12-40-234.25,40-117.13,40-234.26-53.46-120.24-39.86-236.58c1.59-13.59,33.55,22.32,47.24,22.32s13.69-40,27.38-40,13.69,40,27.38,40,13.69-40,27.38-40,5.93,8.73,7.52,22.33c13.6,116.33,39.86,114.8,39.86,231.92s-40,117.13-40,234.25,40,117.13,40,234.25-50.91,119.53-39.91,236.14C814.81,2165.33,857,2164.89,843.37,2281.23Z"/><path class="cls-5" d="M1108.4,2280.18c-1.59,13.6-33.55-22.32-47.24-22.32s-13.69,40-27.38,40-13.69-40-27.38-40-13.69,40-27.38,40-5.93-8.72-7.52-22.32c-13.6-116.33-39.87-114.8-39.87-231.93s40-117.12,40-234.25-40-117.12-40-234.25,40-117.13,40-234.25-53.46-120.25-39.86-236.59c1.59-13.59,33.55,22.33,47.24,22.33s13.69-40,27.38-40,13.69,40,27.38,40,13.69-40,27.38-40,5.93,8.72,7.52,22.32c13.6,116.33,39.87,114.8,39.87,231.92s-40,117.13-40,234.25,40,117.13,40,234.25-50.92,119.53-39.91,236.14C1079.84,2164.28,1122,2163.85,1108.4,2280.18Z"/><path class="cls-6" d="M1373.43,2289.23c-1.59,13.6-33.55-22.32-47.24-22.32s-13.69,40-27.38,40-13.69-40-27.38-40-13.69,40-27.38,40-5.93-8.72-7.52-22.32c-13.6-116.33-39.87-114.8-39.87-231.93s40-117.12,40-234.25-40-117.12-40-234.24,40-117.13,40-234.26-53.46-120.25-39.86-236.59c1.59-13.59,33.55,22.33,47.24,22.33s13.69-40,27.38-40,13.69,40,27.38,40,13.69-40,27.39-40,5.92,8.72,7.51,22.32c13.6,116.33,39.87,114.8,39.87,231.92s-40,117.13-40,234.25,40,117.13,40,234.25-50.92,119.53-39.91,236.14C1344.87,2173.33,1387,2172.9,1373.43,2289.23Z"/><path class="cls-7" d="M1638.47,2289.23c-1.59,13.6-33.56-22.32-47.25-22.32s-13.69,40-27.38,40-13.69-40-27.38-40-13.69,40-27.38,40-5.93-8.72-7.52-22.32c-13.6-116.33-39.86-114.8-39.86-231.93s40-117.12,40-234.25-40-117.12-40-234.24,40-117.13,40-234.26-53.46-120.25-39.87-236.59c1.59-13.59,33.56,22.33,47.25,22.33s13.68-40,27.37-40,13.69,40,27.38,40,13.7-40,27.39-40,5.93,8.72,7.52,22.32c13.6,116.33,39.86,114.8,39.86,231.92s-40,117.13-40,234.25,40,117.13,40,234.25-50.92,119.53-39.91,236.14C1609.9,2173.33,1652.06,2172.9,1638.47,2289.23Z"/></g></g></g></svg>