<svg xmlns="http://www.w3.org/2000/svg" xmlns:xlink="http://www.w3.org/1999/xlink" viewBox="0 0 2298.47 2634.97"><defs><style>.cls-1{fill:none;stroke:#fff;stroke-miterlimit:10;stroke-width:3px;opacity:0;}.cls-2{fill:url(#Dégradé_sans_nom_3);}.cls-3{fill:url(#Dégradé_sans_nom_3-2);}.cls-4{fill:url(#Dégradé_sans_nom_3-3);}.cls-5{fill:url(#Dégradé_sans_nom_3-4);}.cls-6{fill:url(#Dégradé_sans_nom_3-5);}.cls-7{fill:url(#Dégradé_sans_nom_5);}</style><linearGradient id="Dégradé_sans_nom_3" x1="526.82" y1="1137.44" x2="526.82" y2="1137.51" gradientUnits="userSpaceOnUse"><stop offset="0" stop-color="#010101" stop-opacity="0"/><stop offset="1" stop-color="#010101" stop-opacity="0.3"/></linearGradient><linearGradient id="Dégradé_sans_nom_3-2" x1="526.71" y1="1137.51" x2="526.71" y2="1137.59" xlink:href="#Dégradé_sans_nom_3"/><linearGradient id="Dégradé_sans_nom_3-3" x1="1789.89" y1="1141.47" x2="1789.89" y2="1141.62" xlink:href="#Dégradé_sans_nom_3"/><linearGradient id="Dégradé_sans_nom_3-4" x1="527.29" y1="1136.85" x2="527.29" y2="1137.44" xlink:href="#Dégradé_sans_nom_3"/><linearGradient id="Dégradé_sans_nom_3-5" x1="1789.51" y1="1141.4" x2="1789.51" y2="1141.47" xlink:href="#Dégradé_sans_nom_3"/><linearGradient id="Dégradé_sans_nom_5" x1="1167.94" y1="2177.68" x2="1152.96" y2="521.89" gradientUnits="userSpaceOnUse"><stop offset="0.46" stop-color="#010101" stop-opacity="0"/><stop offset="1" stop-color="#010101" stop-opacity="0.3"/></linearGradient></defs><g id="Calque_2" data-name="Calque 2"><g id="Calque_1-2" data-name="Calque 1"><rect class="cls-1" x="1.5" y="1.5" width="2295.47" height="2631.97"/><path class="cls-2" d="M526.79,1137.5l.08-.06-.1.07Z"/><path class="cls-3" d="M526.66,1137.59l.11-.08-.09.06Z"/><path class="cls-4" d="M1789.88,1141.55l.11,0,.15,0-.51-.15Z"/><path class="cls-5" d="M526.87,1137.44l.84-.59-.63.44Z"/><path class="cls-6" d="M1789.38,1141.4l.25.07h0Z"/><path class="cls-7" d="M1602.41,906c-83.29-180.8-290.62-319.3-337.06-348.67-43.92,14.19-87,17.16-126.66,13.56a377.12,377.12,0,0,1-85.26-18.12c-7.54,4.59-198.4,121.89-293.84,295.32-105.18,191.14-214.16,275.77-230.75,288l-1.13.83c.95,2.57,1.86,5.22,2.75,8v0c8.24,25.36,14.08,58,18,98.19v0c8.69,88,8.44,212.08,4.72,375.42h0c0,.67,0,1.35,0,2-2.85,124.44-7.68,271.55-12.07,442.66q-1.8,70-3.46,145.43l24.79-.44,77.81-1.38,1135.4-20.18c-12.78-591.88-32.29-916,13.72-1045.19C1780.52,1138.65,1695.28,1107.56,1602.41,906Z"/></g></g></svg>