<svg xmlns="http://www.w3.org/2000/svg" xmlns:xlink="http://www.w3.org/1999/xlink" viewBox="0 0 2296.47 2632.97"><defs><style>.cls-1,.cls-2,.cls-4{fill:none;}.cls-2{stroke:#fff;opacity:0;}.cls-2,.cls-4{stroke-miterlimit:10;}.cls-3{clip-path:url(#clip-path);}.cls-4{stroke:#010101;stroke-width:4px;}</style><clipPath id="clip-path"><path class="cls-1" d="M524.54,1145c1,2.57,1.86,5.22,2.75,8v0c8.24,25.36,14.08,58,18.05,98.19v0c8.69,88,8.44,212.08,4.72,375.42h0c0,.67,0,1.35,0,2-2.85,124.44-7.68,271.55-12.07,442.66q-1.8,70-3.46,145.43l24.79-.44,77.81-1.38,1135.4-20.18c-12.78-591.88-32.29-916,13.72-1045.19l.21.06.29.09.11,0,.15,0-.76-.22c-8.86-2.75-94.1-33.84-187-235.44-83.29-180.8-290.62-319.3-337.06-348.67-43.92,14.19-87,17.16-126.66,13.56a377.12,377.12,0,0,1-85.26-18.12l.23-.14-.23.14c-7.54,4.59-198.4,121.89-293.84,295.32-105.18,191.14-214.16,275.77-230.75,288l-1.13.83-.63.44-.29.21-.11.07,0,0"/></clipPath></defs><g id="Calque_2" data-name="Calque 2"><g id="Calque_1-2" data-name="Calque 1"><rect class="cls-2" x="0.5" y="0.5" width="2295.47" height="2631.97"/><g class="cls-3"><path class="cls-4" d="M267,2313.26c0-181.7,94-181.7,94-363.4s-94-181.7-94-363.4,94-181.7,94-363.4-94-181.7-94-363.4,94-181.7,94-363.4"/><path class="cls-4" d="M425.66,2313.26c0-181.7,94-181.7,94-363.4s-94-181.7-94-363.4,94-181.7,94-363.4-94-181.7-94-363.4,94-181.7,94-363.4"/><path class="cls-4" d="M641.33,2313.26c0-181.7,94-181.7,94-363.4s-94-181.7-94-363.4,94-181.7,94-363.4-94-181.7-94-363.4,94-181.7,94-363.4"/><path class="cls-4" d="M800,2313.26c0-181.7,94-181.7,94-363.4s-94-181.7-94-363.4,94-181.7,94-363.4-94-181.7-94-363.4,94-181.7,94-363.4"/><path class="cls-4" d="M1015.66,2313.26c0-181.7,94-181.7,94-363.4s-94-181.7-94-363.4,94-181.7,94-363.4-94-181.7-94-363.4,94-181.7,94-363.4"/><path class="cls-4" d="M1174.32,2313.26c0-181.7,94-181.7,94-363.4s-94-181.7-94-363.4,94-181.7,94-363.4-94-181.7-94-363.4,94-181.7,94-363.4"/><path class="cls-4" d="M1390,2313.26c0-181.7,94-181.7,94-363.4s-94-181.7-94-363.4,94-181.7,94-363.4-94-181.7-94-363.4,94-181.7,94-363.4"/><path class="cls-4" d="M1548.66,2313.26c0-181.7,94-181.7,94-363.4s-94-181.7-94-363.4,94-181.7,94-363.4-94-181.7-94-363.4,94-181.7,94-363.4"/><path class="cls-4" d="M1764.33,2313.26c0-181.7,94-181.7,94-363.4s-94-181.7-94-363.4,94-181.7,94-363.4-94-181.7-94-363.4,94-181.7,94-363.4"/><path class="cls-4" d="M1923,2313.26c0-181.7,94-181.7,94-363.4s-94-181.7-94-363.4,94-181.7,94-363.4-94-181.7-94-363.4,94-181.7,94-363.4"/></g></g></g></svg>