<svg width="304" height="148" viewBox="0 0 304 148" fill="none" xmlns="http://www.w3.org/2000/svg">
<rect x="16" y="15" width="275" height="121" fill="white"/>
<path d="M15.2109 14.1445V9.22266H14.6738V14.1445H10.1621V14.6621H14.6738V19.5742H15.2109V14.6621H19.9082V14.1445H15.2109ZM30.5234 14.7598V14.2324H23.5117V14.7598H30.5234ZM42.5352 14.7598V14.2324H35.5234V14.7598H42.5352ZM54.5469 14.7598V14.2324H47.5352V14.7598H54.5469ZM66.5586 14.7598V14.2324H59.5469V14.7598H66.5586ZM78.5703 14.7598V14.2324H71.5586V14.7598H78.5703ZM90.582 14.7598V14.2324H83.5703V14.7598H90.582ZM102.594 14.7598V14.2324H95.582V14.7598H102.594ZM114.605 14.7598V14.2324H107.594V14.7598H114.605ZM126.617 14.7598V14.2324H119.605V14.7598H126.617ZM138.629 14.7598V14.2324H131.617V14.7598H138.629ZM150.641 14.7598V14.2324H143.629V14.7598H150.641ZM162.652 14.7598V14.2324H155.641V14.7598H162.652ZM174.664 14.7598V14.2324H167.652V14.7598H174.664ZM186.676 14.7598V14.2324H179.664V14.7598H186.676ZM198.688 14.7598V14.2324H191.676V14.7598H198.688ZM210.699 14.7598V14.2324H203.688V14.7598H210.699ZM222.711 14.7598V14.2324H215.699V14.7598H222.711ZM234.723 14.7598V14.2324H227.711V14.7598H234.723ZM246.734 14.7598V14.2324H239.723V14.7598H246.734ZM258.746 14.7598V14.2324H251.734V14.7598H258.746ZM270.758 14.7598V14.2324H263.746V14.7598H270.758ZM282.77 14.7598V14.2324H275.758V14.7598H282.77ZM291.48 14.1445V9.22266H290.943V14.1445H286.432V14.6621H290.943V19.5742H291.48V14.6621H296.178V14.1445H291.48Z" fill="black"/>
<path d="M15.2109 136.145V131.223H14.6738V136.145H10.1621V136.662H14.6738V141.574H15.2109V136.662H19.9082V136.145H15.2109ZM30.5234 136.76V136.232H23.5117V136.76H30.5234ZM42.5352 136.76V136.232H35.5234V136.76H42.5352ZM54.5469 136.76V136.232H47.5352V136.76H54.5469ZM66.5586 136.76V136.232H59.5469V136.76H66.5586ZM78.5703 136.76V136.232H71.5586V136.76H78.5703ZM90.582 136.76V136.232H83.5703V136.76H90.582ZM102.594 136.76V136.232H95.582V136.76H102.594ZM114.605 136.76V136.232H107.594V136.76H114.605ZM126.617 136.76V136.232H119.605V136.76H126.617ZM138.629 136.76V136.232H131.617V136.76H138.629ZM150.641 136.76V136.232H143.629V136.76H150.641ZM162.652 136.76V136.232H155.641V136.76H162.652ZM174.664 136.76V136.232H167.652V136.76H174.664ZM186.676 136.76V136.232H179.664V136.76H186.676ZM198.688 136.76V136.232H191.676V136.76H198.688ZM210.699 136.76V136.232H203.688V136.76H210.699ZM222.711 136.76V136.232H215.699V136.76H222.711ZM234.723 136.76V136.232H227.711V136.76H234.723ZM246.734 136.76V136.232H239.723V136.76H246.734ZM258.746 136.76V136.232H251.734V136.76H258.746ZM270.758 136.76V136.232H263.746V136.76H270.758ZM282.77 136.76V136.232H275.758V136.76H282.77ZM291.48 136.145V131.223H290.943V136.145H286.432V136.662H290.943V141.574H291.48V136.662H296.178V136.145H291.48Z" fill="black"/>
<path d="M291.791 119.536L291.264 119.535L291.241 126.546L291.768 126.548L291.791 119.536ZM291.831 107.525L291.304 107.523L291.281 114.535L291.808 114.536L291.831 107.525ZM291.871 95.5131L291.344 95.5114L291.32 102.523L291.848 102.525L291.871 95.5131ZM291.911 83.5015L291.384 83.4997L291.36 90.5114L291.888 90.5131L291.911 83.5015ZM291.951 71.4898L291.424 71.488L291.4 78.4997L291.928 78.5015L291.951 71.4898ZM291.991 59.4781L291.464 59.4764L291.44 66.4881L291.968 66.4898L291.991 59.4781ZM292.031 47.4665L291.503 47.4647L291.48 54.4764L292.008 54.4782L292.031 47.4665ZM292.071 35.4548L291.543 35.4531L291.52 42.4648L292.047 42.4665L292.071 35.4548ZM292.111 23.4432L291.583 23.4414L291.56 30.4531L292.087 30.4549L292.111 23.4432Z" fill="black"/>
<path d="M14.7913 119.536L14.264 119.535L14.2407 126.546L14.768 126.548L14.7913 119.536ZM14.8312 107.525L14.3039 107.523L14.2806 114.535L14.8079 114.536L14.8312 107.525ZM14.8711 95.5131L14.3438 95.5114L14.3205 102.523L14.8478 102.525L14.8711 95.5131ZM14.9111 83.5015L14.3837 83.4997L14.3604 90.5114L14.8878 90.5131L14.9111 83.5015ZM14.951 71.4898L14.4236 71.488L14.4003 78.4997L14.9277 78.5015L14.951 71.4898ZM14.9909 59.4781L14.4636 59.4764L14.4402 66.4881L14.9676 66.4898L14.9909 59.4781ZM15.0308 47.4665L14.5035 47.4647L14.4802 54.4764L15.0075 54.4782L15.0308 47.4665ZM15.0707 35.4548L14.5434 35.4531L14.5201 42.4648L15.0474 42.4665L15.0707 35.4548ZM15.1107 23.4432L14.5833 23.4414L14.56 30.4531L15.0873 30.4549L15.1107 23.4432Z" fill="black"/>
</svg>
