<svg xmlns="http://www.w3.org/2000/svg" xmlns:xlink="http://www.w3.org/1999/xlink" viewBox="0 0 3138.88 3780.04"><defs><style>.cls-1,.cls-2,.cls-4{fill:none;}.cls-2{stroke:#fff;stroke-width:3px;opacity:0;}.cls-2,.cls-4{stroke-miterlimit:10;}.cls-3{clip-path:url(#clip-path);}.cls-4{stroke:#010101;stroke-width:4px;}</style><clipPath id="clip-path" transform="translate(0 1145.06)"><path class="cls-1" d="M1382.36,498c-38.65,33.67-78.34,55.25-117.36,68l-.29-.45s240.51,143.16,334.59,347.37c98.12,213,187.72,235.67,187.72,235.67h0a158.63,158.63,0,0,1,22.43-38.57c58.3-72.88,300.17-76,300.17-76L2182,730.23,1382.36,498"/></clipPath></defs><g id="Calque_2" data-name="Calque 2"><g id="Calque_1-2" data-name="Calque 1"><rect class="cls-2" x="1.5" y="1146.56" width="2295.47" height="2631.97"/><g class="cls-3"><line class="cls-4" x1="2749.29" y1="735.01" x2="1814.7" y2="2963.81"/><line class="cls-4" x1="2607.67" y1="682.85" x2="1673.08" y2="2911.65"/><line class="cls-4" x1="2466.05" y1="630.69" x2="1531.46" y2="2859.49"/><line class="cls-4" x1="2324.43" y1="578.53" x2="1389.84" y2="2807.33"/><line class="cls-4" x1="2182.81" y1="526.37" x2="1248.22" y2="2755.17"/><line class="cls-4" x1="2041.19" y1="474.2" x2="1106.6" y2="2703.01"/><line class="cls-4" x1="1912.45" y1="405.57" x2="977.85" y2="2634.37"/><line class="cls-4" x1="1770.83" y1="353.41" x2="836.24" y2="2582.21"/><line class="cls-4" x1="1629.21" y1="301.25" x2="694.62" y2="2530.05"/><line class="cls-4" x1="1487.59" y1="249.09" x2="553" y2="2477.89"/><line class="cls-4" x1="1345.97" y1="196.93" x2="411.38" y2="2425.73"/><line class="cls-4" x1="1204.35" y1="144.77" x2="269.76" y2="2373.57"/><line class="cls-4" x1="903.86" y1="660.79" x2="2273.3" y2="2652.19"/><line class="cls-4" x1="832.58" y1="717.89" x2="2202.02" y2="2709.29"/><line class="cls-4" x1="761.3" y1="775" x2="2130.74" y2="2766.39"/><line class="cls-4" x1="690.01" y1="832.1" x2="2059.45" y2="2823.5"/><line class="cls-4" x1="618.73" y1="889.2" x2="1988.17" y2="2880.6"/><line class="cls-4" x1="547.45" y1="946.31" x2="1916.89" y2="2937.7"/><line class="cls-4" x1="467.48" y1="984.91" x2="1836.92" y2="2976.31"/><line class="cls-4" x1="396.2" y1="1042.01" x2="1765.64" y2="3033.41"/><line class="cls-4" x1="324.91" y1="1099.12" x2="1694.35" y2="3090.51"/><line class="cls-4" x1="253.63" y1="1156.22" x2="1623.07" y2="3147.62"/><line class="cls-4" x1="182.35" y1="1213.33" x2="1551.79" y2="3204.72"/><line class="cls-4" x1="111.07" y1="1270.43" x2="1480.5" y2="3261.82"/><line class="cls-4" x1="1767.79" y1="1.13" x2="3137.23" y2="1992.53"/><line class="cls-4" x1="1696.51" y1="58.24" x2="3065.95" y2="2049.63"/><line class="cls-4" x1="1625.23" y1="115.34" x2="2994.67" y2="2106.74"/><line class="cls-4" x1="1553.95" y1="172.44" x2="2923.38" y2="2163.84"/><line class="cls-4" x1="1482.66" y1="229.55" x2="2852.1" y2="2220.94"/><line class="cls-4" x1="1411.38" y1="286.65" x2="2780.82" y2="2278.05"/><line class="cls-4" x1="1331.41" y1="325.25" x2="2700.85" y2="2316.65"/><line class="cls-4" x1="1260.13" y1="382.36" x2="2629.57" y2="2373.75"/><line class="cls-4" x1="1188.84" y1="439.46" x2="2558.28" y2="2430.86"/><line class="cls-4" x1="1117.56" y1="496.57" x2="2487" y2="2487.96"/><line class="cls-4" x1="1046.28" y1="553.67" x2="2415.72" y2="2545.06"/><line class="cls-4" x1="975" y1="610.77" x2="2344.44" y2="2602.17"/></g></g></g></svg>