<svg viewBox="0 0 3138.88 3780.04" xmlns="http://www.w3.org/2000/svg" xmlns:xlink="http://www.w3.org/1999/xlink"><clipPath id="a" transform="translate(0 1145.06)"><path d="m1382.36 498c-38.65 33.67-78.34 55.25-117.36 68l-.29-.45s240.51 143.16 334.59 347.37c98.12 213 187.72 235.67 187.72 235.67a158.63 158.63 0 0 1 22.43-38.57c58.3-72.88 300.17-76 300.17-76l72.38-303.79z"/></clipPath><g fill="none" stroke-miterlimit="10"><path d="m1.5 1146.56h2295.47v2631.97h-2295.47z" opacity="0" stroke="#fff" stroke-width="3"/><g clip-path="url(#a)" stroke="#010101" stroke-width="4"><path d="m2749.29 735.01-934.59 2228.8"/><path d="m2607.67 682.85-934.59 2228.8"/><path d="m2466.05 630.69-934.59 2228.8"/><path d="m2324.43 578.53-934.59 2228.8"/><path d="m2182.81 526.37-934.59 2228.8"/><path d="m2041.19 474.2-934.59 2228.81"/><path d="m1912.45 405.57-934.6 2228.8"/><path d="m1770.83 353.41-934.59 2228.8"/><path d="m1629.21 301.25-934.59 2228.8"/><path d="m1487.59 249.09-934.59 2228.8"/><path d="m1345.97 196.93-934.59 2228.8"/><path d="m1204.35 144.77-934.59 2228.8"/><path d="m903.86 660.79 1369.44 1991.4"/><path d="m832.58 717.89 1369.44 1991.4"/><path d="m761.3 775 1369.44 1991.39"/><path d="m690.01 832.1 1369.44 1991.4"/><path d="m618.73 889.2 1369.44 1991.4"/><path d="m547.45 946.31 1369.44 1991.39"/><path d="m467.48 984.91 1369.44 1991.4"/><path d="m396.2 1042.01 1369.44 1991.4"/><path d="m324.91 1099.12 1369.44 1991.39"/><path d="m253.63 1156.22 1369.44 1991.4"/><path d="m182.35 1213.33 1369.44 1991.39"/><path d="m111.07 1270.43 1369.43 1991.39"/><path d="m1767.79 1.13 1369.44 1991.4"/><path d="m1696.51 58.24 1369.44 1991.39"/><path d="m1625.23 115.34 1369.44 1991.4"/><path d="m1553.95 172.44 1369.43 1991.4"/><path d="m1482.66 229.55 1369.44 1991.39"/><path d="m1411.38 286.65 1369.44 1991.4"/><path d="m1331.41 325.25 1369.44 1991.4"/><path d="m1260.13 382.36 1369.44 1991.39"/><path d="m1188.84 439.46 1369.44 1991.4"/><path d="m1117.56 496.57 1369.44 1991.39"/><path d="m1046.28 553.67 1369.44 1991.39"/><path d="m975 610.77 1369.44 1991.4"/></g></g></svg>