<svg xmlns="http://www.w3.org/2000/svg" xmlns:xlink="http://www.w3.org/1999/xlink" viewBox="0 0 3087.69 3014.44"><defs><style>.cls-1,.cls-2,.cls-4{fill:none;}.cls-2{stroke:#fff;stroke-miterlimit:10;stroke-width:3px;opacity:0;}.cls-3{clip-path:url(#clip-path);}.cls-4{stroke:#010101;stroke-linecap:round;stroke-linejoin:round;stroke-width:4px;}</style><clipPath id="clip-path" transform="translate(0 379.47)"><path class="cls-1" d="M1265.4,565.87c39.21-12.82,79.09-34.61,117.9-68.64l798.65,233-72.33,303.79s-241.87,3.07-300.18,76a158.31,158.31,0,0,0-22.43,38.57c-1.2-.31-90.25-24.08-187.72-235.66-60.8-132-182.72-238.48-261.34-297.29-39.72-29.71-68.39-47.26-72.55-49.77l-.52-.31"/></clipPath></defs><g id="Calque_2" data-name="Calque 2"><g id="Calque_1-2" data-name="Calque 1"><rect class="cls-2" x="1.5" y="380.97" width="2295.47" height="2631.97"/><g class="cls-3"><line class="cls-4" x1="3085.69" y1="1099.76" x2="1980.74" y2="2576.05"/><line class="cls-4" x1="2996.03" y1="1032.65" x2="1891.07" y2="2508.93"/><line class="cls-4" x1="2810.29" y1="893.63" x2="1705.33" y2="2369.92"/><line class="cls-4" x1="2720.62" y1="826.52" x2="1615.67" y2="2302.8"/><line class="cls-4" x1="2534.89" y1="687.5" x2="1429.93" y2="2163.79"/><line class="cls-4" x1="2445.22" y1="620.39" x2="1340.27" y2="2096.67"/><line class="cls-4" x1="2259.48" y1="481.37" x2="1154.53" y2="1957.66"/><line class="cls-4" x1="2169.82" y1="414.26" x2="1064.86" y2="1890.54"/><line class="cls-4" x1="1984.08" y1="275.24" x2="879.13" y2="1751.53"/><line class="cls-4" x1="1894.42" y1="208.13" x2="789.46" y2="1684.41"/><line class="cls-4" x1="1708.68" y1="69.11" x2="603.73" y2="1545.4"/><line class="cls-4" x1="1619.01" y1="2" x2="514.06" y2="1478.28"/></g></g></g></svg>