<svg width="601" height="581" viewBox="0 0 601 581" fill="none" xmlns="http://www.w3.org/2000/svg">
<rect x="15" y="15" width="574" height="554" fill="white"/>
<path d="M14.2109 14.1445V9.22266H13.6738V14.1445H9.16211V14.6621H13.6738V19.5742H14.2109V14.6621H18.9082V14.1445H14.2109ZM29.5234 14.7598V14.2324H22.5117V14.7598H29.5234ZM41.5352 14.7598V14.2324H34.5234V14.7598H41.5352ZM53.5469 14.7598V14.2324H46.5352V14.7598H53.5469ZM65.5586 14.7598V14.2324H58.5469V14.7598H65.5586ZM77.5703 14.7598V14.2324H70.5586V14.7598H77.5703ZM89.582 14.7598V14.2324H82.5703V14.7598H89.582ZM101.594 14.7598V14.2324H94.582V14.7598H101.594ZM113.605 14.7598V14.2324H106.594V14.7598H113.605ZM125.617 14.7598V14.2324H118.605V14.7598H125.617ZM137.629 14.7598V14.2324H130.617V14.7598H137.629ZM149.641 14.7598V14.2324H142.629V14.7598H149.641ZM161.652 14.7598V14.2324H154.641V14.7598H161.652ZM173.664 14.7598V14.2324H166.652V14.7598H173.664ZM185.676 14.7598V14.2324H178.664V14.7598H185.676ZM197.688 14.7598V14.2324H190.676V14.7598H197.688ZM209.699 14.7598V14.2324H202.688V14.7598H209.699ZM221.711 14.7598V14.2324H214.699V14.7598H221.711ZM233.723 14.7598V14.2324H226.711V14.7598H233.723ZM245.734 14.7598V14.2324H238.723V14.7598H245.734ZM257.746 14.7598V14.2324H250.734V14.7598H257.746ZM269.758 14.7598V14.2324H262.746V14.7598H269.758ZM281.77 14.7598V14.2324H274.758V14.7598H281.77ZM293.781 14.7598V14.2324H286.77V14.7598H293.781ZM305.793 14.7598V14.2324H298.781V14.7598H305.793ZM317.805 14.7598V14.2324H310.793V14.7598H317.805ZM329.816 14.7598V14.2324H322.805V14.7598H329.816ZM341.828 14.7598V14.2324H334.816V14.7598H341.828ZM353.84 14.7598V14.2324H346.828V14.7598H353.84ZM365.852 14.7598V14.2324H358.84V14.7598H365.852ZM377.863 14.7598V14.2324H370.852V14.7598H377.863ZM389.875 14.7598V14.2324H382.863V14.7598H389.875ZM401.887 14.7598V14.2324H394.875V14.7598H401.887ZM413.898 14.7598V14.2324H406.887V14.7598H413.898ZM425.91 14.7598V14.2324H418.898V14.7598H425.91ZM437.922 14.7598V14.2324H430.91V14.7598H437.922ZM449.934 14.7598V14.2324H442.922V14.7598H449.934ZM461.945 14.7598V14.2324H454.934V14.7598H461.945ZM473.957 14.7598V14.2324H466.945V14.7598H473.957ZM485.969 14.7598V14.2324H478.957V14.7598H485.969ZM497.98 14.7598V14.2324H490.969V14.7598H497.98ZM509.992 14.7598V14.2324H502.98V14.7598H509.992ZM522.004 14.7598V14.2324H514.992V14.7598H522.004ZM534.016 14.7598V14.2324H527.004V14.7598H534.016ZM546.027 14.7598V14.2324H539.016V14.7598H546.027ZM558.039 14.7598V14.2324H551.027V14.7598H558.039ZM570.051 14.7598V14.2324H563.039V14.7598H570.051ZM582.062 14.7598V14.2324H575.051V14.7598H582.062ZM590.773 14.1445V9.22266H590.236V14.1445H585.725V14.6621H590.236V19.5742H590.773V14.6621H595.471V14.1445H590.773Z" fill="black"/>
<path d="M14.2109 570.145V565.223H13.6738V570.145H9.16211V570.662H13.6738V575.574H14.2109V570.662H18.9082V570.145H14.2109ZM29.5234 570.76V570.232H22.5117V570.76H29.5234ZM41.5352 570.76V570.232H34.5234V570.76H41.5352ZM53.5469 570.76V570.232H46.5352V570.76H53.5469ZM65.5586 570.76V570.232H58.5469V570.76H65.5586ZM77.5703 570.76V570.232H70.5586V570.76H77.5703ZM89.582 570.76V570.232H82.5703V570.76H89.582ZM101.594 570.76V570.232H94.582V570.76H101.594ZM113.605 570.76V570.232H106.594V570.76H113.605ZM125.617 570.76V570.232H118.605V570.76H125.617ZM137.629 570.76V570.232H130.617V570.76H137.629ZM149.641 570.76V570.232H142.629V570.76H149.641ZM161.652 570.76V570.232H154.641V570.76H161.652ZM173.664 570.76V570.232H166.652V570.76H173.664ZM185.676 570.76V570.232H178.664V570.76H185.676ZM197.688 570.76V570.232H190.676V570.76H197.688ZM209.699 570.76V570.232H202.688V570.76H209.699ZM221.711 570.76V570.232H214.699V570.76H221.711ZM233.723 570.76V570.232H226.711V570.76H233.723ZM245.734 570.76V570.232H238.723V570.76H245.734ZM257.746 570.76V570.232H250.734V570.76H257.746ZM269.758 570.76V570.232H262.746V570.76H269.758ZM281.77 570.76V570.232H274.758V570.76H281.77ZM293.781 570.76V570.232H286.77V570.76H293.781ZM305.793 570.76V570.232H298.781V570.76H305.793ZM317.805 570.76V570.232H310.793V570.76H317.805ZM329.816 570.76V570.232H322.805V570.76H329.816ZM341.828 570.76V570.232H334.816V570.76H341.828ZM353.84 570.76V570.232H346.828V570.76H353.84ZM365.852 570.76V570.232H358.84V570.76H365.852ZM377.863 570.76V570.232H370.852V570.76H377.863ZM389.875 570.76V570.232H382.863V570.76H389.875ZM401.887 570.76V570.232H394.875V570.76H401.887ZM413.898 570.76V570.232H406.887V570.76H413.898ZM425.91 570.76V570.232H418.898V570.76H425.91ZM437.922 570.76V570.232H430.91V570.76H437.922ZM449.934 570.76V570.232H442.922V570.76H449.934ZM461.945 570.76V570.232H454.934V570.76H461.945ZM473.957 570.76V570.232H466.945V570.76H473.957ZM485.969 570.76V570.232H478.957V570.76H485.969ZM497.98 570.76V570.232H490.969V570.76H497.98ZM509.992 570.76V570.232H502.98V570.76H509.992ZM522.004 570.76V570.232H514.992V570.76H522.004ZM534.016 570.76V570.232H527.004V570.76H534.016ZM546.027 570.76V570.232H539.016V570.76H546.027ZM558.039 570.76V570.232H551.027V570.76H558.039ZM570.051 570.76V570.232H563.039V570.76H570.051ZM582.062 570.76V570.232H575.051V570.76H582.062ZM590.773 570.145V565.223H590.236V570.145H585.725V570.662H590.236V575.574H590.773V570.662H595.471V570.145H590.773Z" fill="black"/>
<path d="M590.76 552.488H590.232V559.5H590.76V552.488ZM590.76 540.477H590.232V547.488H590.76V540.477ZM590.76 528.465H590.232V535.477H590.76V528.465ZM590.76 516.453H590.232V523.465H590.76V516.453ZM590.76 504.441H590.232V511.453H590.76V504.441ZM590.76 492.43H590.232V499.441H590.76V492.43ZM590.76 480.418H590.232V487.43H590.76V480.418ZM590.76 468.406H590.232V475.418H590.76V468.406ZM590.76 456.395H590.232V463.406H590.76V456.395ZM590.76 444.383H590.232V451.395H590.76V444.383ZM590.76 432.371H590.232V439.383H590.76V432.371ZM590.76 420.359H590.232V427.371H590.76V420.359ZM590.76 408.348H590.232V415.359H590.76V408.348ZM590.76 396.336H590.232V403.348H590.76V396.336ZM590.76 384.324H590.232V391.336H590.76V384.324ZM590.76 372.312H590.232V379.324H590.76V372.312ZM590.76 360.301H590.232V367.312H590.76V360.301ZM590.76 348.289H590.232V355.301H590.76V348.289ZM590.76 336.277H590.232V343.289H590.76V336.277ZM590.76 324.266H590.232V331.277H590.76V324.266ZM590.76 312.254H590.232V319.266H590.76V312.254ZM590.76 300.242H590.232V307.254H590.76V300.242ZM590.76 288.23H590.232V295.242H590.76V288.23ZM590.76 276.219H590.232V283.23H590.76V276.219ZM590.76 264.207H590.232V271.219H590.76V264.207ZM590.76 252.195H590.232V259.207H590.76V252.195ZM590.76 240.184H590.232V247.195H590.76V240.184ZM590.76 228.172H590.232V235.184H590.76V228.172ZM590.76 216.16H590.232V223.172H590.76V216.16ZM590.76 204.148H590.232V211.16H590.76V204.148ZM590.76 192.137H590.232V199.148H590.76V192.137ZM590.76 180.125H590.232V187.137H590.76V180.125ZM590.76 168.113H590.232V175.125H590.76V168.113ZM590.76 156.102H590.232V163.113H590.76V156.102ZM590.76 144.09H590.232V151.102H590.76V144.09ZM590.76 132.078H590.232V139.09H590.76V132.078ZM590.76 120.066H590.232V127.078H590.76V120.066ZM590.76 108.055H590.232V115.066H590.76V108.055ZM590.76 96.043H590.232V103.055H590.76V96.043ZM590.76 84.0312H590.232V91.043H590.76V84.0312ZM590.76 72.0195H590.232V79.0312H590.76V72.0195ZM590.76 60.0078H590.232V67.0195H590.76V60.0078ZM590.76 47.9961H590.232V55.0078H590.76V47.9961ZM590.76 35.9844H590.232V42.9961H590.76V35.9844ZM590.76 23.9727H590.232V30.9844H590.76V23.9727Z" fill="black"/>
<path d="M14.7598 553.488H14.2324V560.5H14.7598V553.488ZM14.7598 541.477H14.2324V548.488H14.7598V541.477ZM14.7598 529.465H14.2324V536.477H14.7598V529.465ZM14.7598 517.453H14.2324L14.2324 524.465H14.7598L14.7598 517.453ZM14.7598 505.441H14.2324V512.453H14.7598V505.441ZM14.7598 493.43H14.2324V500.441H14.7598V493.43ZM14.7598 481.418H14.2324V488.43H14.7598V481.418ZM14.7598 469.406H14.2324V476.418H14.7598V469.406ZM14.7598 457.395H14.2324V464.406H14.7598V457.395ZM14.7598 445.383H14.2324V452.395H14.7598V445.383ZM14.7598 433.371H14.2324L14.2324 440.383H14.7598L14.7598 433.371ZM14.7598 421.359H14.2324V428.371H14.7598V421.359ZM14.7598 409.348H14.2324V416.359H14.7598V409.348ZM14.7598 397.336H14.2324V404.348H14.7598V397.336ZM14.7598 385.324H14.2324V392.336H14.7598V385.324ZM14.7598 373.312H14.2324V380.324H14.7598V373.312ZM14.7598 361.301H14.2324V368.312H14.7598V361.301ZM14.7598 349.289H14.2324V356.301H14.7598V349.289ZM14.7598 337.277H14.2324V344.289H14.7598V337.277ZM14.7598 325.266H14.2324V332.277H14.7598V325.266ZM14.7598 313.254H14.2324V320.266H14.7598V313.254ZM14.7598 301.242H14.2324V308.254H14.7598V301.242ZM14.7598 289.23H14.2324V296.242H14.7598V289.23ZM14.7598 277.219H14.2324V284.23H14.7598V277.219ZM14.7598 265.207H14.2324V272.219H14.7598V265.207ZM14.7598 253.195H14.2324V260.207H14.7598V253.195ZM14.7598 241.184H14.2324V248.195H14.7598V241.184ZM14.7598 229.172H14.2324V236.184H14.7598V229.172ZM14.7598 217.16H14.2324V224.172H14.7598V217.16ZM14.7598 205.148H14.2324V212.16H14.7598V205.148ZM14.7598 193.137H14.2324L14.2324 200.148H14.7598L14.7598 193.137ZM14.7598 181.125H14.2324V188.137H14.7598V181.125ZM14.7598 169.113H14.2324V176.125H14.7598V169.113ZM14.7598 157.102H14.2324V164.113H14.7598V157.102ZM14.7598 145.09H14.2324V152.102H14.7598V145.09ZM14.7598 133.078H14.2324V140.09H14.7598V133.078ZM14.7598 121.066H14.2324V128.078H14.7598V121.066ZM14.7598 109.055H14.2324L14.2324 116.066H14.7598L14.7598 109.055ZM14.7598 97.043H14.2324V104.055H14.7598V97.043ZM14.7598 85.0312H14.2324V92.043H14.7598V85.0312ZM14.7598 73.0195H14.2324V80.0312H14.7598V73.0195ZM14.7598 61.0078H14.2324V68.0195H14.7598V61.0078ZM14.7598 48.9961H14.2324V56.0078H14.7598V48.9961ZM14.7598 36.9844H14.2324V43.9961H14.7598V36.9844ZM14.7598 24.9727H14.2324L14.2324 31.9844H14.7598L14.7598 24.9727Z" fill="black"/>
</svg>
