<svg width="296" height="361" viewBox="0 0 296 361" fill="none" xmlns="http://www.w3.org/2000/svg">
<rect x="15" y="15" width="264" height="336" fill="white"/>
<path d="M15.2109 350.145V345.223H14.6738V350.145H10.1621V350.662H14.6738V355.574H15.2109V350.662H19.9082V350.145H15.2109ZM30.5234 350.76V350.232H23.5117V350.76H30.5234ZM42.5352 350.76V350.232H35.5234V350.76H42.5352ZM54.5469 350.76V350.232H47.5352V350.76H54.5469ZM66.5586 350.76V350.232H59.5469V350.76H66.5586ZM78.5703 350.76V350.232H71.5586V350.76H78.5703ZM90.582 350.76V350.232H83.5703V350.76H90.582ZM102.594 350.76V350.232H95.582V350.76H102.594ZM114.605 350.76V350.232H107.594V350.76H114.605ZM126.617 350.76V350.232H119.605V350.76H126.617ZM138.629 350.76V350.232H131.617V350.76H138.629ZM150.641 350.76V350.232H143.629V350.76H150.641ZM162.652 350.76V350.232H155.641V350.76H162.652ZM174.664 350.76V350.232H167.652V350.76H174.664ZM186.676 350.76V350.232H179.664V350.76H186.676ZM198.688 350.76V350.232H191.676V350.76H198.688ZM210.699 350.76V350.232H203.688V350.76H210.699ZM222.711 350.76V350.232H215.699V350.76H222.711ZM234.723 350.76V350.232H227.711V350.76H234.723ZM246.734 350.76V350.232H239.723V350.76H246.734ZM258.746 350.76V350.232H251.734V350.76H258.746ZM270.758 350.76V350.232H263.746V350.76H270.758ZM279.469 350.145V345.223H278.932V350.145H274.42V350.662H278.932V355.574H279.469V350.662H284.166V350.145H279.469Z" fill="black"/>
<path d="M15.2109 14.1445V9.22266H14.6738V14.1445H10.1621V14.6621H14.6738V19.5742H15.2109V14.6621H19.9082V14.1445H15.2109ZM30.5234 14.7598V14.2324H23.5117V14.7598H30.5234ZM42.5352 14.7598V14.2324H35.5234V14.7598H42.5352ZM54.5469 14.7598V14.2324H47.5352V14.7598H54.5469ZM66.5586 14.7598V14.2324H59.5469V14.7598H66.5586ZM78.5703 14.7598V14.2324H71.5586V14.7598H78.5703ZM90.582 14.7598V14.2324H83.5703V14.7598H90.582ZM102.594 14.7598V14.2324H95.582V14.7598H102.594ZM114.605 14.7598V14.2324H107.594V14.7598H114.605ZM126.617 14.7598V14.2324H119.605V14.7598H126.617ZM138.629 14.7598V14.2324H131.617V14.7598H138.629ZM150.641 14.7598V14.2324H143.629V14.7598H150.641ZM162.652 14.7598V14.2324H155.641V14.7598H162.652ZM174.664 14.7598V14.2324H167.652V14.7598H174.664ZM186.676 14.7598V14.2324H179.664V14.7598H186.676ZM198.688 14.7598V14.2324H191.676V14.7598H198.688ZM210.699 14.7598V14.2324H203.688V14.7598H210.699ZM222.711 14.7598V14.2324H215.699V14.7598H222.711ZM234.723 14.7598V14.2324H227.711V14.7598H234.723ZM246.734 14.7598V14.2324H239.723V14.7598H246.734ZM258.746 14.7598V14.2324H251.734V14.7598H258.746ZM270.758 14.7598V14.2324H263.746V14.7598H270.758ZM279.469 14.1445V9.22266H278.932V14.1445H274.42V14.6621H278.932V19.5742H279.469V14.6621H284.166V14.1445H279.469Z" fill="black"/>
<path d="M14.7598 334.488H14.2324V341.5H14.7598V334.488ZM14.7598 322.477H14.2324V329.488H14.7598V322.477ZM14.7598 310.465H14.2324V317.477H14.7598V310.465ZM14.7598 298.453H14.2324L14.2324 305.465H14.7598L14.7598 298.453ZM14.7598 286.441H14.2324V293.453H14.7598V286.441ZM14.7598 274.43H14.2324V281.441H14.7598V274.43ZM14.7598 262.418H14.2324V269.43H14.7598V262.418ZM14.7598 250.406H14.2324V257.418H14.7598V250.406ZM14.7598 238.395H14.2324V245.406H14.7598V238.395ZM14.7598 226.383H14.2324V233.395H14.7598V226.383ZM14.7598 214.371H14.2324L14.2324 221.383H14.7598L14.7598 214.371ZM14.7598 202.359H14.2324V209.371H14.7598V202.359ZM14.7598 190.348H14.2324V197.359H14.7598V190.348ZM14.7598 178.336H14.2324V185.348H14.7598V178.336ZM14.7598 166.324H14.2324V173.336H14.7598V166.324ZM14.7598 154.312H14.2324V161.324H14.7598V154.312ZM14.7598 142.301H14.2324V149.312H14.7598V142.301ZM14.7598 130.289H14.2324V137.301H14.7598V130.289ZM14.7598 118.277H14.2324V125.289H14.7598V118.277ZM14.7598 106.266H14.2324V113.277H14.7598V106.266ZM14.7598 94.2539H14.2324V101.266H14.7598V94.2539ZM14.7598 82.2422H14.2324V89.2539H14.7598V82.2422ZM14.7598 70.2305H14.2324V77.2422H14.7598V70.2305ZM14.7598 58.2188H14.2324V65.2305H14.7598V58.2188ZM14.7598 46.207H14.2324V53.2188H14.7598V46.207ZM14.7598 34.1953H14.2324V41.207H14.7598V34.1953ZM14.7598 22.1836H14.2324V29.1953H14.7598V22.1836Z" fill="black"/>
<path d="M279.76 334.488H279.232V341.5H279.76V334.488ZM279.76 322.477H279.232V329.488H279.76V322.477ZM279.76 310.465H279.232V317.477H279.76V310.465ZM279.76 298.453H279.232V305.465H279.76V298.453ZM279.76 286.441H279.232V293.453H279.76V286.441ZM279.76 274.43H279.232V281.441H279.76V274.43ZM279.76 262.418H279.232V269.43H279.76V262.418ZM279.76 250.406H279.232V257.418H279.76V250.406ZM279.76 238.395H279.232V245.406H279.76V238.395ZM279.76 226.383H279.232V233.395H279.76V226.383ZM279.76 214.371H279.232V221.383H279.76V214.371ZM279.76 202.359H279.232V209.371H279.76V202.359ZM279.76 190.348H279.232V197.359H279.76V190.348ZM279.76 178.336H279.232V185.348H279.76V178.336ZM279.76 166.324H279.232V173.336H279.76V166.324ZM279.76 154.312H279.232V161.324H279.76V154.312ZM279.76 142.301H279.232V149.312H279.76V142.301ZM279.76 130.289H279.232V137.301H279.76V130.289ZM279.76 118.277H279.232V125.289H279.76V118.277ZM279.76 106.266H279.232V113.277H279.76V106.266ZM279.76 94.2539H279.232V101.266H279.76V94.2539ZM279.76 82.2422H279.232V89.2539H279.76V82.2422ZM279.76 70.2305H279.232V77.2422H279.76V70.2305ZM279.76 58.2188H279.232V65.2305H279.76V58.2188ZM279.76 46.207H279.232V53.2188H279.76V46.207ZM279.76 34.1953H279.232V41.207H279.76V34.1953ZM279.76 22.1836H279.232V29.1953H279.76V22.1836Z" fill="black"/>
</svg>
